<svg id="svg114881" version="1.1" viewBox="0 0 595.28 841.89" xmlns="http://www.w3.org/2000/svg">
 <g fill="none" stroke="#000">
  <g stroke-width=".72">
   <path id="path109079" d="m391.6 61.551h-78.351"/>
   <path id="path109081" d="m294.78 61.551h-3.718"/>
   <path id="path109083" d="m250.38 61.551h-98.028"/>
   <path id="path109085" d="m389.8 63.352h-64.309"/>
   <path id="path109095" d="m391.6 615.52v-7.079"/>
   <path id="path109097" d="m391.6 593.2v-6.121"/>
   <path id="path109099" d="m391.6 568.6v-6.839"/>
   <path id="path109101" d="m391.6 515.93v-9.961"/>
   <path id="path109103" d="m391.6 487.5v-35.637"/>
   <path id="path109107" d="m391.6 240.45v-15.238"/>
   <path id="path109109" d="m391.6 206.73v-38.156"/>
   <path id="path109111" d="m288.66 690.75h-85.672"/>
   <path id="path109113" d="m288.66 688.95h-83.871"/>
  </g>
  <path id="path109161" d="m202.99 690.75v-224.73" stroke-width=".71412"/>
  <path id="path109163" d="m202.99 319.04v-129.34" stroke-width=".70987"/>
  <path id="path109165" d="m204.79 688.95v-222.93" stroke-width=".72"/>
  <path id="path109167" d="m204.79 319.04v-129.34" stroke-width=".72"/>
  <g stroke-width=".24">
   <path id="path109329" d="m389.8 690.75v51.234"/>
   <path id="path109331" d="m367.61 715.46v1.801"/>
   <path id="path109333" d="m288.66 743.78h153.7"/>
   <path id="path109335" d="m290.58 741.98h22.199"/>
   <path id="path109337" d="m314.57 741.98h75.231"/>
   <path id="path109339" d="m337.97 717.27h29.636"/>
   <path id="path109341" d="m337.97 715.46h29.636"/>
   <path id="path109343" d="m335.57 690.75h54.231"/>
   <path id="path109345" d="m335.57 688.95h54.231"/>
  </g>
  <path id="path109355" d="m239.94 187.9v59.753" stroke-width=".7311"/>
  <g stroke-width=".72">
   <path id="path109357" d="m239.94 260.01v47.633"/>
   <path id="path109359" d="m239.94 319.88v4.32"/>
   <path id="path109361" d="m239.94 336.56v112.19"/>
   <path id="path109363" d="m239.94 461.1v4.316"/>
   <path id="path109365" d="m239.94 477.78v89.149"/>
   <path id="path109367" d="m239.94 579.16v78.352"/>
  </g>
  <path id="path109377" d="m241.86 319.88v4.32" stroke-width=".72"/>
  <path id="path109381" d="m241.86 461.1v3.597" stroke-width=".72"/>
  <g stroke-width=".72">
   <path id="path109383" d="m241.86 464.7v0.719"/>
   <path id="path109391" d="m367.61 717.27v0.48"/>
   <path id="path109393" d="m367.61 718.23v3.597"/>
   <path id="path109395" d="m367.61 723.39v3.117"/>
   <path id="path109397" d="m367.61 728.07v2.996"/>
   <path id="path109399" d="m367.61 732.62v3.117"/>
   <path id="path109401" d="m367.61 737.3v3.597"/>
   <path id="path109403" d="m367.61 741.38v0.601"/>
   <path id="path109405" d="m363.89 717.27v0.48"/>
   <path id="path109407" d="m363.89 718.23v3.597"/>
   <path id="path109409" d="m363.89 723.39v3.117"/>
   <path id="path109411" d="m363.89 728.07v2.996"/>
   <path id="path109413" d="m363.89 732.62v3.117"/>
   <path id="path109415" d="m363.89 737.3v3.597"/>
   <path id="path109417" d="m363.89 741.38v0.601"/>
   <path id="path109419" d="m360.17 717.27v0.48"/>
   <path id="path109421" d="m360.17 718.23v3.597"/>
   <path id="path109423" d="m360.17 723.39v3.117"/>
   <path id="path109425" d="m360.17 728.07v2.996"/>
   <path id="path109427" d="m360.17 732.62v3.117"/>
   <path id="path109429" d="m360.17 737.3v3.597"/>
   <path id="path109431" d="m360.17 741.38v0.601"/>
   <path id="path109433" d="m356.57 717.27v0.48"/>
   <path id="path109435" d="m356.57 718.23v3.597"/>
   <path id="path109437" d="m356.57 723.39v3.117"/>
   <path id="path109439" d="m356.57 728.07v2.996"/>
   <path id="path109441" d="m356.57 732.62v3.117"/>
   <path id="path109443" d="m356.57 737.3v3.597"/>
   <path id="path109445" d="m356.57 741.38v0.601"/>
   <path id="path109447" d="m352.85 717.27v0.48"/>
   <path id="path109449" d="m352.85 718.23v3.597"/>
   <path id="path109451" d="m352.85 723.39v3.117"/>
   <path id="path109453" d="m352.85 728.07v2.996"/>
   <path id="path109455" d="m352.85 732.62v3.117"/>
   <path id="path109457" d="m352.85 737.3v3.597"/>
   <path id="path109459" d="m352.85 741.38v0.601"/>
   <path id="path109461" d="m349.13 717.27v0.48"/>
   <path id="path109463" d="m349.13 718.23v3.597"/>
   <path id="path109465" d="m349.13 723.39v3.117"/>
   <path id="path109467" d="m349.13 728.07v2.996"/>
   <path id="path109469" d="m349.13 732.62v3.117"/>
   <path id="path109471" d="m349.13 737.3v3.597"/>
   <path id="path109473" d="m349.13 741.38v0.601"/>
   <path id="path109475" d="m345.41 717.27v0.48"/>
   <path id="path109477" d="m345.41 718.23v3.597"/>
   <path id="path109479" d="m345.41 723.39v3.117"/>
   <path id="path109481" d="m345.41 728.07v2.996"/>
   <path id="path109483" d="m345.41 732.62v3.117"/>
   <path id="path109485" d="m345.41 737.3v3.597"/>
   <path id="path109487" d="m345.41 741.38v0.601"/>
   <path id="path109489" d="m341.69 741.38v0.601"/>
   <path id="path109491" d="m337.97 717.27v0.48"/>
   <path id="path109493" d="m337.97 718.23v3.597"/>
   <path id="path109495" d="m337.97 723.39v3.117"/>
   <path id="path109497" d="m337.97 728.07v2.996"/>
   <path id="path109499" d="m337.97 732.62v3.117"/>
   <path id="path109501" d="m337.97 737.3v3.597"/>
   <path id="path109503" d="m337.97 741.38v0.601"/>
  </g>
  <g stroke-width=".24">
   <path id="path109505" d="m367.61 715.46v-0.477"/>
   <path id="path109507" d="m367.61 714.51v-22.797"/>
   <path id="path109509" d="m367.61 691.23v-0.48"/>
   <path id="path109511" d="m363.89 715.46v-0.477"/>
   <path id="path109513" d="m363.89 714.51v-22.797"/>
   <path id="path109515" d="m363.89 691.23v-0.48"/>
   <path id="path109517" d="m360.17 714.51v-22.797"/>
   <path id="path109519" d="m360.17 691.23v-0.48"/>
   <path id="path109521" d="m356.57 714.51v-22.797"/>
   <path id="path109523" d="m356.57 691.23v-0.48"/>
   <path id="path109525" d="m352.85 714.51v-22.797"/>
   <path id="path109527" d="m352.85 691.23v-0.48"/>
   <path id="path109529" d="m349.13 714.51v-22.797"/>
   <path id="path109531" d="m349.13 691.23v-0.48"/>
   <path id="path109533" d="m345.41 715.46v-0.477"/>
   <path id="path109535" d="m345.41 714.51v-22.797"/>
   <path id="path109537" d="m345.41 691.23v-0.48"/>
   <path id="path109539" d="m341.69 715.46v-0.477"/>
   <path id="path109541" d="m341.69 714.51v-22.797"/>
   <path id="path109543" d="m341.69 691.23v-0.48"/>
   <path id="path109545" d="m337.97 715.46v-0.477"/>
   <path id="path109547" d="m337.97 714.51v-22.797"/>
   <path id="path109549" d="m337.97 691.23v-0.48"/>
   <path id="path109551" d="m290.58 741.98v-27.718"/>
  </g>
  <path id="path109553" d="m290.58 695.67v-6.719" stroke-width=".24"/>
  <g stroke-width=".24">
   <path id="path109555" d="m288.66 743.78v-29.515"/>
   <path id="path109557" d="m288.66 695.67v-4.918"/>
   <path id="path109559" d="m335.57 690.75v-1.801"/>
   <path id="path109561" d="m290.58 688.95h-1.918"/>
   <path id="path109563" d="m337.97 717.27v-1.801"/>
  </g>
  <path id="path109583" d="m391.6 61.551v14.519" stroke-width=".72"/>
  <path id="path109591" d="m391.6 61.551v14.519" stroke-width=".72"/>
  <g stroke-width=".24">
   <path id="path109595" d="m389.8 688.95h3.121"/>
   <path id="path109601" d="m389.8 670.47h3.121"/>
   <path id="path109627" d="m442.36 615.52v128.26"/>
   <path id="path109707" d="m392.93 690.75v-1.801"/>
   <path id="path109709" d="m403.96 690.75v-1.801"/>
   <path id="path109915" d="m392.93 668.55v1.922"/>
   <path id="path109917" d="m403.96 668.55v1.922"/>
   <path id="path110061" d="m391.6 615.52h50.754"/>
   <path id="path110271" d="m152.36 189.7v-13.797"/>
   <path id="path110273" d="m152.36 75.23v-13.679"/>
   <path id="path110305" d="m206.11 189.7h-1.32"/>
   <path id="path110307" d="m202.99 189.7h-50.633"/>
   <path id="path110323" d="m290.46 187.9h-50.512"/>
   <path id="path110329" d="m389.8 657.52h-149.86"/>
   <path id="path110331" d="m389.8 225.21h1.8"/>
   <path id="path110333" d="m389.8 258.93h1.8"/>
   <path id="path110335" d="m389.8 240.45h1.8"/>
   <path id="path110337" d="m389.8 288.44h1.8"/>
   <path id="path110339" d="m389.8 269.96h1.8"/>
  </g>
  <g stroke-width=".72">
   <path id="path110341" d="m391.6 225.21v-18.477"/>
   <path id="path110345" d="m390.53 225.21v-18.477"/>
   <path id="path110347" d="m390.89 225.21v-18.477"/>
   <path id="path110349" d="m391.6 258.93v-18.477"/>
   <path id="path110353" d="m390.53 258.93v-18.477"/>
   <path id="path110355" d="m390.89 258.93v-18.477"/>
   <path id="path110357" d="m391.6 288.44v-18.476"/>
   <path id="path110361" d="m390.53 288.44v-18.476"/>
   <path id="path110363" d="m390.89 288.44v-18.476"/>
  </g>
  <g stroke-width=".24">
   <path id="path110365" d="m389.8 561.77h1.8"/>
   <path id="path110367" d="m389.8 543.29h1.8"/>
   <path id="path110369" d="m389.8 534.41h1.8"/>
   <path id="path110371" d="m389.8 515.93h1.8"/>
   <path id="path110373" d="m389.8 608.44h1.8"/>
   <path id="path110375" d="m389.8 589.96h1.8"/>
   <path id="path110377" d="m391.6 587.08h-1.8 1.8"/>
   <path id="path110379" d="m389.8 568.6h1.8"/>
   <path id="path110381" d="m391.6 505.97h-1.8 1.8"/>
   <path id="path110383" d="m389.8 487.5h1.8"/>
   <path id="path110385" d="m389.8 451.86h1.8"/>
   <path id="path110387" d="m389.8 433.38h1.8"/>
   <path id="path110389" d="m391.6 422.34h-1.8 1.8"/>
   <path id="path110391" d="m389.8 403.87h1.8"/>
   <path id="path110393" d="m391.6 381.67h-1.8 1.8"/>
   <path id="path110395" d="m389.8 363.19h1.8"/>
   <path id="path110397" d="m391.6 351.43h-1.8 1.8"/>
   <path id="path110399" d="m389.8 332.84h1.8"/>
   <path id="path110401" d="m391.6 314.96h-1.8 1.8"/>
   <path id="path110403" d="m389.8 296.48h1.8"/>
   <path id="path110405" d="m391.6 94.547h-1.8 1.8"/>
   <path id="path110407" d="m389.8 76.07h1.8"/>
  </g>
  <g stroke-width=".72">
   <path id="path110413" d="m246.66 121.18v-11.157"/>
   <path id="path110419" d="m239.94 324.2h1.918"/>
   <path id="path110421" d="m239.94 465.42h1.918"/>
   <path id="path110423" d="m239.94 566.93h1.918"/>
  </g>
  <g stroke-width=".24">
   <path id="path110425" d="m152.36 118.3h1.801"/>
   <path id="path110427" d="m152.36 99.828h1.801"/>
   <path id="path110429" d="m152.36 93.707h1.801"/>
  </g>
  <g stroke-width=".72">
   <path id="path110433" d="m152.36 118.3v-18.477"/>
   <path id="path110435" d="m153.08 118.3v-18.477"/>
   <path id="path110437" d="m153.44 118.3v-18.477"/>
  </g>
  <path id="path110439" d="m152.36 93.707h1.801" stroke-width=".24"/>
  <path id="path110441" d="m152.36 75.23h1.801" stroke-width=".24"/>
  <g stroke-width=".72">
   <path id="path110445" d="m152.36 93.707v-18.477"/>
   <path id="path110447" d="m153.08 93.707v-18.477"/>
   <path id="path110449" d="m153.44 93.707v-18.477"/>
  </g>
  <g stroke-width=".24">
   <path id="path110451" d="m152.36 181.78h1.801"/>
   <path id="path110453" d="m152.36 163.18h1.801"/>
   <path id="path110455" d="m152.36 157.06h1.801"/>
   <path id="path110457" d="m152.36 157.06h1.801"/>
   <path id="path110459" d="m152.36 138.58h1.801"/>
  </g>
  <g stroke-width=".72">
   <path id="path110463" d="m152.36 181.78v-18.597"/>
   <path id="path110465" d="m153.08 181.78v-18.597"/>
   <path id="path110467" d="m153.44 181.78v-18.597"/>
   <path id="path110471" d="m152.36 157.06v-18.477"/>
   <path id="path110473" d="m153.08 157.06v-18.477"/>
   <path id="path110475" d="m153.44 157.06v-18.477"/>
  </g>
  <g stroke-width=".24">
   <path id="path110477" d="m152.36 163.18v-6.121"/>
   <path id="path110481" d="m152.36 138.58v-20.277"/>
   <path id="path110487" d="m152.36 93.707v6.121"/>
  </g>
  <g stroke-width=".72">
   <path id="path110491" d="m391.6 94.547v-18.477"/>
   <path id="path110495" d="m390.53 94.547v-18.477"/>
   <path id="path110497" d="m390.89 94.547v-18.477"/>
   <path id="path110499" d="m391.6 119.14v-18.477"/>
   <path id="path110503" d="m390.53 119.14v-18.477"/>
   <path id="path110505" d="m390.89 119.14v-18.477"/>
   <path id="path110507" d="m391.6 143.86v-18.476"/>
   <path id="path110511" d="m390.53 143.86v-18.476"/>
   <path id="path110513" d="m390.89 143.86v-18.476"/>
   <path id="path110515" d="m391.6 168.58v-18.598"/>
   <path id="path110519" d="m390.53 168.58v-18.598"/>
   <path id="path110521" d="m390.89 168.58v-18.598"/>
   <path id="path110523" d="m391.6 314.96v-18.477"/>
   <path id="path110527" d="m390.53 314.96v-18.477"/>
   <path id="path110529" d="m390.89 314.96v-18.477"/>
   <path id="path110531" d="m391.6 351.43v-18.598"/>
   <path id="path110535" d="m390.53 351.43v-18.598"/>
   <path id="path110537" d="m390.89 351.43v-18.598"/>
   <path id="path110539" d="m391.6 381.67v-18.481"/>
   <path id="path110543" d="m390.53 381.67v-18.481"/>
   <path id="path110545" d="m390.89 381.67v-18.481"/>
   <path id="path110547" d="m391.6 422.34v-18.477"/>
   <path id="path110551" d="m390.53 422.34v-18.477"/>
   <path id="path110553" d="m390.89 422.34v-18.477"/>
   <path id="path110555" d="m391.6 451.86v-18.476"/>
   <path id="path110559" d="m390.53 451.86v-18.476"/>
   <path id="path110561" d="m390.89 451.86v-18.476"/>
   <path id="path110563" d="m391.6 505.97v-18.477"/>
   <path id="path110567" d="m390.53 505.97v-18.477"/>
   <path id="path110569" d="m390.89 505.97v-18.477"/>
   <path id="path110571" d="m391.6 534.41v-18.476"/>
   <path id="path110575" d="m390.53 534.41v-18.476"/>
   <path id="path110577" d="m390.89 534.41v-18.476"/>
   <path id="path110579" d="m391.6 561.77v-18.477"/>
   <path id="path110583" d="m390.53 561.77v-18.477"/>
   <path id="path110585" d="m390.89 561.77v-18.477"/>
   <path id="path110587" d="m391.6 587.08v-18.477"/>
   <path id="path110591" d="m390.53 587.08v-18.477"/>
   <path id="path110593" d="m390.89 587.08v-18.477"/>
   <path id="path110595" d="m391.6 608.44v-18.48"/>
   <path id="path110599" d="m390.53 608.44v-18.48"/>
   <path id="path110601" d="m390.89 608.44v-18.48"/>
   <path id="path110603" d="m404.56 616.36h14.879"/>
   <path id="path110605" d="m404.56 616.72h14.879"/>
   <path id="path110607" d="m404.56 617.44v-1.918"/>
   <path id="path110609" d="m419.44 617.44v-1.918"/>
   <path id="path110611" d="m424.96 616.36h14.758"/>
   <path id="path110613" d="m424.96 616.72h14.758"/>
   <path id="path110615" d="m424.96 617.44v-1.918"/>
   <path id="path110617" d="m439.72 617.44v-1.918"/>
   <path id="path110619" d="m441.64 672.51v14.758"/>
   <path id="path110621" d="m441.28 672.51v14.758"/>
   <path id="path110623" d="m440.44 672.51h1.921"/>
   <path id="path110625" d="m440.44 687.27h1.921"/>
   <path id="path110627" d="m372.05 743.06h14.758"/>
   <path id="path110629" d="m372.05 742.7h14.758"/>
   <path id="path110631" d="m372.05 741.98v1.797"/>
   <path id="path110633" d="m386.8 741.98v1.797"/>
   <path id="path110635" d="m315.54 743.06h14.758"/>
   <path id="path110637" d="m315.54 742.7h14.758"/>
   <path id="path110639" d="m315.54 741.98v1.797"/>
   <path id="path110641" d="m330.29 741.98v1.797"/>
  </g>
  <path id="path110643" d="m288.66 714.27h1.918" stroke-width=".24"/>
  <path id="path110645" d="m288.66 695.67h1.918" stroke-width=".24"/>
  <g stroke-width=".72">
   <path id="path110647" d="m290.58 714.27v-18.598"/>
   <path id="path110649" d="m288.66 714.27v-18.598"/>
   <path id="path110651" d="m289.38 714.27v-18.598"/>
   <path id="path110653" d="m289.86 714.27v-18.598"/>
  </g>
  <g stroke-width=".24">
   <path id="path110765" d="m367.55 729.62c7.324 0 13.262-5.937 13.262-13.258 0-7.324-5.938-13.258-13.262-13.258"/>
   <path id="path110767" d="m337.97 691.23h51.351v50.153h-51.351"/>
   <path id="path110769" d="m337.97 691.71h50.875v49.191h-50.875"/>
   <path id="path110771" d="m337.91 740.78c-0.168 0-0.301 0.137-0.301 0.301 0 0.168 0.133 0.301 0.301 0.301"/>
   <path id="path110773" d="m337.91 691.11c-0.168 0-0.301 0.133-0.301 0.301 0 0.164 0.133 0.301 0.301 0.301"/>
  </g>
 </g>
 <g stroke="#000" stroke-width=".12">
  <path id="path110775" d="m338.33 702.27h-0.359l0.48 0.117-0.121-0.117m-0.359 0 0.48 0.117h-0.48v-0.117"/>
  <path id="path110777" d="m338.45 702.39h-0.48l0.718 0.121-0.238-0.121m-0.48 0 0.718 0.121h-0.718v-0.121"/>
  <path id="path110779" d="m338.69 702.51h-0.718l0.839 0.121-0.121-0.121m-0.718 0 0.839 0.121h-0.839v-0.121"/>
  <path id="path110781" d="m338.81 702.63h-0.839l0.839 0.117v-0.117m-0.839 0 0.839 0.117h-0.839v-0.117"/>
  <path id="path110783" d="m338.81 702.75h-0.839l0.961 0.242-0.122-0.242m-0.839 0 0.961 0.242h-0.961v-0.242"/>
  <path id="path110785" d="m338.93 702.99h-0.961l0.961 0.121v-0.121m-0.961 0 0.961 0.121h-0.961v-0.121"/>
  <path id="path110787" d="m337.97 703.11h-0.84l0.84 0.118v-0.118m-0.84 0 0.84 0.118h-0.84v-0.118"/>
  <path id="path110789" d="m337.97 703.23h-0.84l0.84 0.242v-0.242m-0.84 0 0.84 0.242h-0.84v-0.242"/>
  <path id="path110791" d="m337.97 703.47h-0.84l0.84 0.117v-0.117m-0.84 0 0.84 0.117h-0.719l-0.121-0.117"/>
  <path id="path110793" d="m337.97 703.59h-0.719l0.719 0.121v-0.121m-0.719 0 0.719 0.121h-0.602l-0.117-0.121"/>
  <path id="path110795" d="m337.97 703.71h-0.602l0.602 0.121v-0.121m-0.602 0 0.602 0.121h-0.481l-0.121-0.121"/>
  <path id="path110797" d="m337.97 703.83h-0.481l0.481 0.121v-0.121m-0.481 0 0.481 0.121h-0.36l-0.121-0.121m0.481 0.121h-0.36 0.36"/>
 </g>
 <g fill="none" stroke="#000" stroke-width=".72">
  <path id="path110799" d="m338.81 703.05c0-0.496-0.402-0.899-0.898-0.899-0.5 0-0.902 0.403-0.902 0.899 0 0.5 0.402 0.902 0.902 0.902 0.496 0 0.898-0.402 0.898-0.902"/>
  <path id="path110817" d="m367.61 729.62h-29.636"/>
  <path id="path110819" d="m353.09 704.31 1.68-1.2-1.68-1.203"/>
  <path id="path110821" d="m337.97 701.79v2.758"/>
  <path id="path110823" d="m336.65 703.11h2.762"/>
  <path id="path110825" d="m367.61 703.11h-29.636"/>
  <path id="path110827" d="m354.41 728.43-1.558 1.199 1.558 1.199"/>
 </g>
 <g stroke="#000" stroke-width=".12">
  <path id="path110891" d="m340.85 691.47 0.242 0.121-0.121-0.36-0.121 0.239m0.242 0.121-0.121-0.36 0.359 0.118-0.238 0.242m-0.121-0.36 0.359 0.118v-0.239l-0.359 0.121"/>
  <path id="path110893" d="m341.33 691.11-0.121-0.238-0.238 0.359 0.359-0.121m-0.121-0.238-0.238 0.359-0.121-0.359h0.359m-0.238 0.359-0.121-0.359-0.239 0.117 0.36 0.242"/>
  <path id="path110895" d="m340.61 690.99v0.36l0.36-0.118-0.36-0.242m0 0.36 0.36-0.118-0.121 0.239-0.239-0.121"/>
 </g>
 <g fill="none" stroke="#000">
  <path id="path111645" d="m392.93 615.52h15.238" stroke-width=".24"/>
  <path id="path111665" d="m391.6 614.32v-9.84" stroke-width=".24"/>
  <path id="path111703" d="m241.87 563.8-7e-3 3.121" stroke-width=".24"/>
  <g stroke-width=".24">
   <path id="path111707" d="m389.8 658.72v7.078"/>
   <path id="path111727" d="m389.8 670.47v-12.957"/>
   <path id="path111981" d="m288.42 688.95h-4.438"/>
   <path id="path111995" d="m289.26 688.95h-10.438"/>
   <path id="path112083" d="m204.79 191.02v4.796"/>
   <path id="path112085" d="m239.94 191.02v4.796"/>
   <path id="path112099" d="m241.86 192.34v3.476"/>
   <path id="path112117" d="m241.86 192.93v7.082"/>
  </g>
  <g stroke-width=".72">
   <path id="path112273" d="m441.64 731.54v-14.758"/>
   <path id="path112277" d="m440.44 731.54h1.921"/>
   <path id="path112279" d="m440.44 716.78h1.921"/>
   <path id="path112281" d="m441.64 711.15v-14.757"/>
   <path id="path112285" d="m440.44 711.15h1.921"/>
   <path id="path112287" d="m440.44 696.39h1.921"/>
  </g>
  <g stroke-width=".24">
   <path id="path112291" d="m223.39 177.46v12.238"/>
   <path id="path112297" d="m223.39 189.7h-3.117"/>
   <path id="path112299" d="m209.11 189.7h-3"/>
  </g>
  <path id="path112891" d="m239.94 122.98h6.719" stroke-width=".24"/>
  <path id="path112893" d="m257.7 122.98h32.754" stroke-width=".24"/>
  <path id="path112897" d="m240.04 121.2 6.6227-0.01184" stroke-width=".24"/>
  <path id="path112901" d="m290.46 187.9v-3.36" stroke-width=".38291"/>
  <g stroke-width=".24">
   <path id="path112903" d="m290.46 172.18v-49.192"/>
   <path id="path112921" d="m241.86 461.1h-1.918"/>
   <path id="path112923" d="m241.86 319.88h-1.918"/>
   <path id="path112925" d="m246.66 122.98v-1.8"/>
   <path id="path112927" d="m257.7 122.98v-1.8"/>
  </g>
  <path id="path112925-6" d="m332.21 122.98v-1.8" stroke-width=".24"/>
  <path id="path112927-1" d="m343.25 122.98v-1.8" stroke-width=".24"/>
  <g stroke-width=".24">
   <path id="path112929" d="m220.27 187.9v1.8"/>
   <path id="path112931" d="m209.11 187.9v1.8"/>
   <path id="path112959" d="m290.46 184.54h1.801"/>
   <path id="path112975" d="m241.86 158.86-18.476 18.598"/>
   <path id="path112979" d="m241.86 158.86v-35.875"/>
   <path id="path112981" d="m239.94 260.01h1.918"/>
   <path id="path112983" d="m239.94 247.65h1.918"/>
   <path id="path112987" d="m391.6 363.19v-11.757"/>
  </g>
  <path id="path112991" d="m391.6 381.67v22.195" stroke-width=".29432"/>
  <g stroke-width=".72">
   <path id="path112993" d="m152.48 466.02v-146.98"/>
   <path id="path112995" d="m142.52 475.98v-166.78"/>
   <path id="path112997" d="m144.32 474.06v-163.06"/>
  </g>
  <path id="path112999" d="m204.79 319.04h-52.312" stroke-width=".73272"/>
  <path id="path113001" d="m204.79 466.02h-52.312" stroke-width=".73272"/>
  <g stroke-width=".72">
   <path id="path113003" d="m202.99 309.2h-60.468"/>
   <path id="path113005" d="m202.99 311h-58.672"/>
   <path id="path113007" d="m202.99 475.98h-60.468"/>
   <path id="path113009" d="m202.99 474.06h-58.672"/>
  </g>
  <path id="path113063" d="m391.6 100.67v-6.121" stroke-width=".24"/>
  <path id="path113063-6" d="m391.6 125.38v-6.284" stroke-width=".24318"/>
  <path id="path113065-7" d="m389.8 125.38v-6.284" stroke-width=".24318"/>
  <g stroke-width=".24">
   <path id="path113073" d="m391.6 258.93v11.039"/>
   <path id="path113079" d="m391.6 296.48v-8.039"/>
   <path id="path113083" d="m391.6 314.96v17.879"/>
   <path id="path113087" d="m391.6 433.38v-11.039"/>
   <path id="path113095" d="m391.6 543.29v-8.879"/>
   <path id="path113099" d="m392.93 615.52h7.437"/>
   <path id="path113623" d="m337.97 187.9h3"/>
   <path id="path113657" d="m326.7 63.352h14.278"/>
   <path id="path113671" d="m241.86 119.5v-13.316"/>
   <path id="path113673" d="m323.7 119.5v-13.316"/>
   <path id="path113737" d="m292.26 124.3v11.879"/>
   <path id="path113997" d="m272.58 63.352v-1.801 1.801"/>
   <path id="path113999" d="m268.86 61.551v1.801"/>
   <path id="path114001" d="m291.06 61.551v1.801"/>
   <path id="path114003" d="m294.78 61.551v1.801"/>
   <path id="path114005" d="m250.38 63.352v-1.801 1.801"/>
   <path id="path114007" d="m313.25 61.551v1.801"/>
  </g>
  <g stroke-width=".72">
   <path id="path114011" d="m272.58 61.551h-3.719"/>
   <path id="path114013" d="m268.86 61.551h-18.48"/>
   <path id="path114017" d="m268.86 62.633h-18.48"/>
   <path id="path114019" d="m268.86 62.273h-18.48"/>
   <path id="path114021" d="m291.06 61.551h-18.477"/>
   <path id="path114025" d="m291.06 62.633h-18.477"/>
   <path id="path114027" d="m291.06 62.273h-18.477"/>
   <path id="path114029" d="m313.25 61.551h-18.477"/>
   <path id="path114033" d="m313.25 62.633h-18.477"/>
   <path id="path114035" d="m313.25 62.273h-18.477"/>
  </g>
  <g stroke-width=".24">
   <path id="path114037" d="m290.58 717.27h22.199"/>
   <path id="path114039" d="m314.57 741.98v-26.519"/>
   <path id="path114041" d="m312.78 741.98v-26.519h1.797"/>
   <path id="path114059" d="m367.61 714.27v-5.278"/>
   <path id="path114077" d="m336.77 741.98h-7.199"/>
  </g>
  <g stroke-width=".72">
   <path id="path114091" d="m341.69 717.27v0.48"/>
   <path id="path114093" d="m341.69 718.23v3.597"/>
   <path id="path114095" d="m341.69 723.39v3.117"/>
   <path id="path114097" d="m341.69 728.07v2.996"/>
   <path id="path114099" d="m341.69 732.62v3.117"/>
   <path id="path114101" d="m341.69 737.3v3.597"/>
  </g>
  <g stroke-width=".24">
   <path id="path114103" d="m367.61 714.99h-29.636v0.477"/>
   <path id="path114105" d="m337.97 714.51h29.636"/>
   <path id="path114107" d="m367.61 717.75h-29.636v-0.48"/>
   <path id="path114109" d="m337.97 718.23h29.636"/>
   <path id="path114111" d="m367.55 717.75c0.766 0 1.383-0.617 1.383-1.379s-0.617-1.379-1.383-1.379"/>
   <path id="path114113" d="m367.55 718.23c1.027 0 1.863-0.832 1.863-1.86 0-1.027-0.836-1.859-1.863-1.859"/>
  </g>
  <g stroke-width=".72">
   <path id="path114115" d="m360.17 715.46v-0.477"/>
   <path id="path114117" d="m356.57 715.46v-0.477"/>
   <path id="path114119" d="m352.85 715.46v-0.477"/>
   <path id="path114121" d="m349.13 715.46v-0.477"/>
  </g>
  <g stroke-width=".24">
   <path id="path114123" d="m337.91 714.99c-0.762 0-1.383 0.617-1.383 1.379s0.621 1.379 1.383 1.379"/>
   <path id="path114125" d="m337.91 714.51c-1.027 0-1.859 0.832-1.859 1.859 0 1.028 0.832 1.86 1.859 1.86"/>
   <path id="path114127" d="m241.86 579.16h-1.918"/>
   <path id="path114129" d="m241.86 477.78h-1.918"/>
   <path id="path114131" d="m241.86 448.74h-1.918"/>
   <path id="path114133" d="m241.86 336.56h-1.918"/>
   <path id="path114135" d="m241.86 307.64h-1.918"/>
   <path id="path114247" d="m290.46 172.18h1.801"/>
  </g>
  <path id="path114249" d="m219.91 187.9v-11.04" stroke-width=".72"/>
  <path id="path113063-5" d="m391.6 149.98v-6.121" stroke-width=".24"/>
 </g>
 <g id="salaA101" fill="none" stroke="#000">
  <path id="path109579" d="m391.6 741.98v-51.234" stroke-width=".72"/>
  <path id="path109581" d="m391.6 741.98h48.833" stroke-width=".24"/>
  <g stroke-width=".72">
   <path id="path109593" d="m440.44 690.75h-36.473"/>
   <path id="path109611" d="m440.44 690.75h-36.473"/>
   <path id="path109613" d="m392.93 690.75h-1.321"/>
   <path id="path109615" d="m424.12 690.75v2.398"/>
   <path id="path109617" d="m424.12 700.59v5.156"/>
   <path id="path109619" d="m424.48 690.75v2.398"/>
   <path id="path109621" d="m424.48 700.59v2.277"/>
   <path id="path109623" d="m424.48 703.23v2.519"/>
  </g>
  <path id="path109625" d="m440.44 690.75v51.234" stroke-width=".24"/>
  <g stroke-width=".72">
   <path id="path109655" d="m424.48 703.23h15.958"/>
   <path id="path109657" d="m424.48 702.87h15.958"/>
   <path id="path109659" d="m424.48 693.15v0.359h7.441v-0.359h-7.441"/>
   <path id="path109661" d="m424.48 700.59 1.442-0.121 1.32-0.481 1.32-0.601 1.079-0.84 0.961-1.078 0.597-1.199 0.481-1.321 0.242-1.441"/>
   <path id="path109663" d="m424.12 700.59v-7.442"/>
   <path id="path109665" d="m424.12 713.07v5.161"/>
   <path id="path109667" d="m424.48 713.07v2.282"/>
   <path id="path109669" d="m440.44 715.83h-15.958v2.399"/>
   <path id="path109671" d="m424.48 715.35h15.958"/>
   <path id="path109673" d="m424.48 705.63v0.359h7.441v-0.359h-7.441"/>
   <path id="path109675" d="m424.48 713.07 1.442-0.121 1.32-0.48 1.32-0.598 1.079-0.84 0.961-1.082 0.597-1.199 0.481-1.32 0.242-1.438"/>
   <path id="path109677" d="m424.12 713.07v-7.437"/>
   <path id="path109679" d="m424.12 725.55v5.156"/>
   <path id="path109681" d="m424.48 725.55v2.277"/>
   <path id="path109683" d="m440.44 728.3h-15.958v2.398"/>
   <path id="path109685" d="m424.48 727.82h15.958"/>
   <path id="path109687" d="m424.48 718.1v0.359h7.441v-0.359h-7.441"/>
   <path id="path109689" d="m424.48 725.55 1.442-0.121 1.32-0.481 1.32-0.601 1.079-0.84 0.961-1.078 0.597-1.199 0.481-1.321 0.242-1.441"/>
   <path id="path109691" d="m424.12 725.55v-7.442"/>
   <path id="path109693" d="m424.12 738.02v3.961"/>
   <path id="path109695" d="m424.12 738.02h0.359v3.961"/>
   <path id="path109697" d="m424.48 730.59v0.359h7.441v-0.359h-7.441"/>
   <path id="path109699" d="m424.48 738.02 1.442-0.121 1.32-0.359 1.32-0.719 1.079-0.84 0.961-1.082 0.597-1.199 0.481-1.32 0.242-1.438"/>
   <path id="path109701" d="m424.12 738.02v-7.437"/>
  </g>
  <g stroke-width=".24">
   <path id="path109703" d="m406.48 703.95h-14.879"/>
   <path id="path109705" d="m406.48 702.75h-14.879"/>
   <path id="path109711" d="m406.48 702.75v1.203"/>
  </g>
  <g stroke-width=".72">
   <path id="path109713" d="m399.04 741.98v-38.035"/>
   <path id="path109715" d="m393.58 707.75c-0.074 0.223-0.125 0.453-0.152 0.688"/>
   <path id="path109717" d="m394.14 706.98c-0.207 0.25-0.364 0.539-0.469 0.843"/>
   <path id="path109719" d="m394.86 706.47c-0.277 0.136-0.519 0.332-0.715 0.574"/>
   <path id="path109721" d="m395.62 706.11c-0.293 0-0.578 0.067-0.84 0.2"/>
   <path id="path109723" d="m396.46 706.31c-0.262-0.133-0.547-0.2-0.84-0.2"/>
   <path id="path109725" d="m397.22 707.04c-0.196-0.242-0.438-0.438-0.715-0.574"/>
   <path id="path109727" d="m397.7 707.82c-0.105-0.304-0.265-0.593-0.469-0.843"/>
   <path id="path109729" d="m397.84 708.81c0-0.364-0.059-0.719-0.172-1.063"/>
   <path id="path109731" d="m397.67 709.87c0.113-0.344 0.172-0.699 0.172-1.058"/>
   <path id="path109733" d="m397.23 710.76c0.204-0.25 0.364-0.539 0.469-0.844"/>
   <path id="path109735" d="m396.51 711.27c0.277-0.137 0.519-0.332 0.715-0.575"/>
   <path id="path109737" d="m395.62 711.62c0.293 0 0.578-0.066 0.84-0.199"/>
   <path id="path109739" d="m394.78 711.43c0.262 0.133 0.547 0.199 0.84 0.199"/>
   <path id="path109741" d="m394.15 710.69c0.196 0.243 0.438 0.438 0.715 0.575"/>
   <path id="path109743" d="m393.67 709.91c0.105 0.305 0.262 0.594 0.469 0.844"/>
   <path id="path109745" d="m393.43 709.23c0.027 0.218 0.074 0.433 0.144 0.64"/>
   <path id="path109747" d="m394.73 708.51h-1.442"/>
   <path id="path109749" d="m393.28 709.35h1.442"/>
   <path id="path109751" d="m392.98 708.39c-0.296 0-0.539 0.242-0.539 0.539 0 0.301 0.243 0.543 0.539 0.543 0.301 0 0.539-0.242 0.539-0.543 0-0.297-0.238-0.539-0.539-0.539"/>
   <path id="path109753" d="m392.98 708.51c-0.23 0-0.418 0.187-0.418 0.418 0 0.234 0.188 0.422 0.418 0.422 0.235 0 0.422-0.188 0.422-0.422 0-0.231-0.187-0.418-0.422-0.418"/>
   <path id="path109755" d="m392.32 708.63v0.598"/>
   <path id="path109757" d="m395.62 708.51c-0.164 0-0.301 0.133-0.301 0.301 0 0.164 0.137 0.296 0.301 0.296s0.301-0.132 0.301-0.296c0-0.168-0.137-0.301-0.301-0.301"/>
   <path id="path109759" d="m391.6 713.91h7.438"/>
   <path id="path109761" d="m399.16 713.78v-9.719"/>
   <path id="path109763" d="m399.64 713.78v-9.719"/>
   <path id="path109765" d="m393.43 721.18c0.027 0.234 0.078 0.461 0.152 0.683"/>
   <path id="path109767" d="m393.67 721.91c0.105 0.305 0.262 0.59 0.469 0.84"/>
   <path id="path109769" d="m394.15 722.69c0.196 0.239 0.438 0.434 0.715 0.575"/>
   <path id="path109771" d="m394.78 723.3c0.262 0.133 0.547 0.199 0.84 0.199"/>
   <path id="path109773" d="m395.62 723.5c0.293 0 0.578-0.066 0.84-0.199"/>
   <path id="path109775" d="m396.51 723.27c0.277-0.141 0.519-0.336 0.715-0.575"/>
   <path id="path109777" d="m397.23 722.75c0.204-0.25 0.364-0.535 0.469-0.84"/>
   <path id="path109779" d="m397.67 721.86c0.113-0.34 0.172-0.699 0.172-1.058"/>
   <path id="path109781" d="m397.84 720.8c0-0.36-0.059-0.719-0.172-1.059"/>
   <path id="path109783" d="m397.7 719.82c-0.105-0.308-0.265-0.593-0.469-0.843"/>
   <path id="path109785" d="m397.22 718.92c-0.196-0.242-0.438-0.438-0.715-0.578"/>
   <path id="path109787" d="m396.46 718.3c-0.262-0.129-0.547-0.2-0.84-0.2"/>
   <path id="path109789" d="m395.62 718.1c-0.293 0-0.578 0.071-0.84 0.2"/>
   <path id="path109791" d="m394.86 718.34c-0.277 0.14-0.519 0.336-0.715 0.578"/>
   <path id="path109793" d="m394.14 718.98c-0.207 0.25-0.364 0.535-0.469 0.843"/>
   <path id="path109795" d="m393.58 719.75c-0.07 0.207-0.117 0.422-0.144 0.641"/>
   <path id="path109797" d="m394.73 721.23h-1.442"/>
   <path id="path109799" d="m393.28 720.5h1.442"/>
   <path id="path109801" d="m392.98 721.34c0.301 0 0.539-0.239 0.539-0.539 0-0.297-0.238-0.539-0.539-0.539-0.296 0-0.539 0.242-0.539 0.539 0 0.3 0.243 0.539 0.539 0.539"/>
   <path id="path109803" d="m392.98 721.23c0.235 0 0.422-0.188 0.422-0.422 0-0.231-0.187-0.418-0.422-0.418-0.23 0-0.418 0.187-0.418 0.418 0 0.234 0.188 0.422 0.418 0.422"/>
   <path id="path109805" d="m392.32 721.23v-0.723"/>
   <path id="path109807" d="m395.62 721.1c0.164 0 0.301-0.132 0.301-0.3 0-0.164-0.137-0.301-0.301-0.301s-0.301 0.137-0.301 0.301c0 0.168 0.137 0.3 0.301 0.3"/>
   <path id="path109809" d="m393.43 734.86c0.027 0.231 0.078 0.461 0.152 0.684"/>
   <path id="path109811" d="m393.67 735.59c0.105 0.308 0.262 0.594 0.469 0.844"/>
   <path id="path109813" d="m394.15 736.37c0.196 0.238 0.438 0.434 0.715 0.574"/>
   <path id="path109815" d="m394.78 737.1c0.262 0.132 0.547 0.203 0.84 0.203"/>
   <path id="path109817" d="m395.62 737.3c0.293 0 0.578-0.071 0.84-0.203"/>
   <path id="path109819" d="m396.51 736.94c0.277-0.14 0.519-0.336 0.715-0.574"/>
   <path id="path109821" d="m397.23 736.43c0.204-0.25 0.364-0.536 0.469-0.844"/>
   <path id="path109823" d="m397.67 735.54c0.113-0.34 0.172-0.699 0.172-1.059"/>
   <path id="path109825" d="m397.84 734.48c0-0.359-0.059-0.718-0.172-1.058"/>
   <path id="path109827" d="m397.7 733.5c-0.105-0.305-0.265-0.59-0.469-0.844"/>
   <path id="path109829" d="m397.22 732.72c-0.196-0.239-0.438-0.438-0.715-0.574"/>
   <path id="path109831" d="m396.46 731.98c-0.262-0.132-0.547-0.199-0.84-0.199"/>
   <path id="path109833" d="m395.62 731.78c-0.293 0-0.578 0.067-0.84 0.199"/>
   <path id="path109835" d="m394.86 732.14c-0.277 0.136-0.519 0.335-0.715 0.574"/>
   <path id="path109837" d="m394.14 732.65c-0.207 0.254-0.364 0.539-0.469 0.844"/>
   <path id="path109839" d="m393.58 733.43c-0.07 0.207-0.117 0.422-0.144 0.64"/>
   <path id="path109841" d="m394.73 734.9h-1.442"/>
   <path id="path109843" d="m393.28 734.18h1.442"/>
   <path id="path109845" d="m392.98 735.02c0.301 0 0.539-0.242 0.539-0.539 0-0.296-0.238-0.539-0.539-0.539-0.296 0-0.539 0.243-0.539 0.539 0 0.297 0.243 0.539 0.539 0.539"/>
   <path id="path109847" d="m392.98 734.9c0.235 0 0.422-0.187 0.422-0.418 0-0.234-0.187-0.421-0.422-0.421-0.23 0-0.418 0.187-0.418 0.421 0 0.231 0.188 0.418 0.418 0.418"/>
   <path id="path109849" d="m392.32 734.9v-0.718"/>
   <path id="path109851" d="m395.62 734.78c0.164 0 0.301-0.137 0.301-0.301 0-0.168-0.137-0.3-0.301-0.3s-0.301 0.132-0.301 0.3c0 0.164 0.137 0.301 0.301 0.301"/>
   <path id="path112275" d="m441.28 731.54v-14.758"/>
   <path id="path112283" d="m441.28 711.15v-14.757"/>
  </g>
  <path id="path114061" d="m392.32 714.27v-5.278" stroke-width=".24"/>
  <g stroke-width=".72">
   <path id="path114141" d="m393.28 701.91 2.281-0.597 2.161-0.961 1.918-1.438 1.558-1.68 1.32-1.921 0.961-2.161 0.481-2.398"/>
   <path id="path114143" d="m392.93 690.75v11.156"/>
   <path id="path114145" d="m392.93 701.91h0.359v-11.156h-0.359"/>
  </g>
  <path id="path114177" d="m391.6 701.55v-0.719" stroke-width=".24"/>
  <g stroke-width=".72">
   <path id="path114353" d="m435.04 735.62h0.961"/>
   <path id="path114355" d="m435.9 735.5c0.137-0.348 0.137-0.734 0-1.082"/>
   <path id="path114357" d="m436 734.54h-0.961"/>
   <path id="path114359" d="m434.54 734.64c-0.137 0.191-0.137 0.449 0 0.636"/>
   <path id="path114361" d="m436.72 733.7h0.84"/>
   <path id="path114363" d="m436.72 736.46h0.84"/>
   <path id="path114365" d="m436.72 736.34v-2.52"/>
   <path id="path114367" d="m438.28 732.5v1.199h-0.722"/>
   <path id="path114369" d="m437.23 733.46c-0.133-0.289-0.395-0.5-0.704-0.566"/>
   <path id="path114371" d="m435.82 732.78c-0.289-0.027-0.574-0.039-0.863-0.031"/>
   <path id="path114373" d="m434.91 732.75c-0.246 8e-3 -0.496 0.024-0.742 0.055"/>
   <path id="path114375" d="m433.86 732.83c-0.172 0.047-0.336 0.11-0.496 0.192"/>
   <path id="path114377" d="m433.36 733.11c-0.328 0.168-0.609 0.418-0.816 0.723"/>
   <path id="path114379" d="m432.53 733.73c-0.242 0.368-0.371 0.797-0.371 1.239"/>
   <path id="path114381" d="m432.16 735.07c0 0.442 0.129 0.871 0.371 1.239"/>
   <path id="path114383" d="m432.54 736.21c0.207 0.305 0.488 0.555 0.816 0.723"/>
   <path id="path114385" d="m433.37 737.03c0.16 0.082 0.324 0.149 0.496 0.192"/>
   <path id="path114387" d="m434.17 737.25c0.246 0.031 0.496 0.047 0.742 0.055"/>
   <path id="path114389" d="m434.95 737.3c0.289 8e-3 0.574-4e-3 0.863-0.031"/>
   <path id="path114391" d="m436.52 737.04c0.309-0.07 0.571-0.281 0.704-0.566"/>
   <path id="path114393" d="m437.56 736.46h0.722v1.199"/>
   <path id="path114395" d="m438.76 738.02h1.441"/>
   <path id="path114397" d="m440.44 737.66v-5.16"/>
   <path id="path114399" d="m440.2 732.14h-0.84v-0.243h-0.359v0.243h-0.242"/>
   <path id="path114401" d="m434.96 736.7c0.265 4e-3 0.527-4e-3 0.789-0.027"/>
   <path id="path114403" d="m434.25 736.65c0.223 0.028 0.449 0.043 0.68 0.051"/>
   <path id="path114405" d="m433.04 735.88c0.141 0.211 0.332 0.387 0.559 0.508"/>
   <path id="path114407" d="m432.76 735.07c-4e-3 0.324 0.09 0.637 0.265 0.903"/>
   <path id="path114409" d="m433.03 734.07c-0.175 0.266-0.269 0.582-0.265 0.903"/>
   <path id="path114411" d="m433.6 733.66c-0.227 0.121-0.418 0.297-0.559 0.508"/>
   <path id="path114413" d="m434.93 733.35c-0.227 4e-3 -0.453 0.019-0.68 0.05"/>
   <path id="path114415" d="m435.75 733.38c-0.262-0.023-0.524-0.035-0.789-0.031"/>
   <path id="path114417" d="m438.28 736.46v-2.762"/>
   <path id="path114419" d="m435.04 722.18h0.961"/>
   <path id="path114421" d="m435.9 722.19c0.137-0.348 0.137-0.735 0-1.083"/>
   <path id="path114423" d="m436 721.1h-0.961"/>
   <path id="path114425" d="m434.54 721.33c-0.137 0.188-0.137 0.445 0 0.637"/>
   <path id="path114427" d="m436.72 720.27h0.84"/>
   <path id="path114429" d="m437.56 723.02h-0.84"/>
   <path id="path114431" d="m436.72 722.91v-2.519"/>
   <path id="path114433" d="m438.28 719.07v1.2h-0.722"/>
   <path id="path114435" d="m437.23 720.14c-0.133-0.285-0.395-0.496-0.704-0.567"/>
   <path id="path114437" d="m435.82 719.34c-0.289-0.027-0.574-0.039-0.863-0.031"/>
   <path id="path114439" d="m434.91 719.31c-0.246 4e-3 -0.496 0.023-0.742 0.054"/>
   <path id="path114441" d="m433.86 719.39c-0.172 0.043-0.336 0.109-0.496 0.191"/>
   <path id="path114443" d="m433.36 719.68c-0.328 0.168-0.609 0.418-0.816 0.722"/>
   <path id="path114445" d="m432.53 720.42c-0.242 0.367-0.371 0.797-0.371 1.234"/>
   <path id="path114447" d="m432.16 721.64c0 0.441 0.129 0.871 0.371 1.238"/>
   <path id="path114449" d="m432.54 722.77c0.207 0.305 0.488 0.555 0.816 0.723"/>
   <path id="path114451" d="m433.37 723.59c0.16 0.082 0.324 0.144 0.496 0.191"/>
   <path id="path114453" d="m434.17 723.81c0.246 0.031 0.496 0.046 0.742 0.054"/>
   <path id="path114455" d="m434.95 723.86c0.289 8e-3 0.574-4e-3 0.863-0.031"/>
   <path id="path114457" d="m436.52 723.72c0.309-0.067 0.571-0.278 0.704-0.567"/>
   <path id="path114459" d="m437.56 723.02h0.722v1.204"/>
   <path id="path114461" d="m438.76 724.59h1.441"/>
   <path id="path114463" d="m440.44 724.23v-5.161"/>
   <path id="path114465" d="m440.2 718.71h-0.84v-0.121h-0.359v0.121h-0.242"/>
   <path id="path114467" d="m434.96 723.27c0.265 4e-3 0.527-8e-3 0.789-0.032"/>
   <path id="path114469" d="m434.25 723.21c0.223 0.031 0.449 0.047 0.68 0.051"/>
   <path id="path114471" d="m433.04 722.44c0.141 0.21 0.332 0.386 0.559 0.507"/>
   <path id="path114473" d="m432.76 721.64c-4e-3 0.32 0.09 0.636 0.265 0.902"/>
   <path id="path114475" d="m433.03 720.75c-0.175 0.27-0.269 0.582-0.265 0.902"/>
   <path id="path114477" d="m433.6 720.23c-0.227 0.121-0.418 0.296-0.559 0.507"/>
   <path id="path114479" d="m434.93 719.91c-0.227 8e-3 -0.453 0.024-0.68 0.051"/>
   <path id="path114481" d="m435.75 719.93c-0.262-0.024-0.524-0.032-0.789-0.028"/>
   <path id="path114483" d="m438.28 723.02v-2.757"/>
   <path id="path114485" d="m435.04 710.07h0.961"/>
   <path id="path114487" d="m435.9 709.95c0.137-0.347 0.137-0.734 0-1.082"/>
   <path id="path114489" d="m436 708.87h-0.961"/>
   <path id="path114491" d="m434.54 709.09c-0.137 0.187-0.137 0.445 0 0.637"/>
   <path id="path114493" d="m436.72 708.03h0.84"/>
   <path id="path114495" d="m436.72 710.91h0.84"/>
   <path id="path114497" d="m436.72 710.78v-2.637"/>
   <path id="path114499" d="m438.28 706.95v1.078h-0.722"/>
   <path id="path114501" d="m437.23 707.9c-0.133-0.285-0.395-0.496-0.704-0.566"/>
   <path id="path114503" d="m435.82 707.22c-0.289-0.024-0.574-0.035-0.863-0.031"/>
   <path id="path114505" d="m434.91 707.07c-0.246 4e-3 -0.496 0.024-0.742 0.055"/>
   <path id="path114507" d="m433.86 707.27c-0.172 0.046-0.336 0.113-0.496 0.195"/>
   <path id="path114509" d="m433.36 707.43c-0.328 0.171-0.609 0.421-0.816 0.726"/>
   <path id="path114511" d="m432.53 708.18c-0.242 0.367-0.371 0.797-0.371 1.234"/>
   <path id="path114513" d="m432.16 709.4c0 0.442 0.129 0.872 0.371 1.239"/>
   <path id="path114515" d="m432.54 710.65c0.207 0.309 0.488 0.559 0.816 0.727"/>
   <path id="path114517" d="m433.37 711.35c0.16 0.082 0.324 0.144 0.496 0.191"/>
   <path id="path114519" d="m434.17 711.69c0.246 0.031 0.496 0.05 0.742 0.058"/>
   <path id="path114521" d="m434.95 711.75c0.289 4e-3 0.574-4e-3 0.863-0.031"/>
   <path id="path114523" d="m436.52 711.48c0.309-0.066 0.571-0.277 0.704-0.566"/>
   <path id="path114525" d="m437.56 710.91h0.722v1.082"/>
   <path id="path114527" d="m438.76 712.35h1.441"/>
   <path id="path114529" d="m440.44 712.1v-5.277"/>
   <path id="path114531" d="m440.2 706.59h-0.84v-0.238h-0.359v0.238h-0.242"/>
   <path id="path114533" d="m434.96 711.14c0.265 7e-3 0.527-4e-3 0.789-0.028"/>
   <path id="path114535" d="m434.25 711.09c0.223 0.027 0.449 0.047 0.68 0.051"/>
   <path id="path114537" d="m433.04 710.32c0.141 0.211 0.332 0.383 0.559 0.508"/>
   <path id="path114539" d="m432.76 709.4c-4e-3 0.321 0.09 0.637 0.265 0.903"/>
   <path id="path114541" d="m433.03 708.51c-0.175 0.269-0.269 0.582-0.265 0.902"/>
   <path id="path114543" d="m433.6 707.99c-0.227 0.121-0.418 0.297-0.559 0.508"/>
   <path id="path114545" d="m434.93 707.67c-0.227 8e-3 -0.453 0.023-0.68 0.051"/>
   <path id="path114547" d="m435.75 707.82c-0.262-0.023-0.524-0.031-0.789-0.027"/>
   <path id="path114549" d="m438.28 710.91v-2.879"/>
   <path id="path114551" d="m435.04 697.83h0.961"/>
   <path id="path114553" d="m435.9 697.71c0.137-0.348 0.137-0.734 0-1.082"/>
   <path id="path114555" d="m436 696.63h-0.961"/>
   <path id="path114557" d="m434.54 696.85c-0.137 0.187-0.137 0.445 0 0.636"/>
   <path id="path114559" d="m436.72 695.79h0.84"/>
   <path id="path114561" d="m436.72 698.67h0.84"/>
   <path id="path114563" d="m436.72 698.55v-2.637"/>
   <path id="path114565" d="m438.28 694.71v1.078h-0.722"/>
   <path id="path114567" d="m437.23 695.66c-0.133-0.285-0.395-0.496-0.704-0.566"/>
   <path id="path114569" d="m435.82 694.98c-0.289-0.023-0.574-0.035-0.863-0.031"/>
   <path id="path114571" d="m434.91 694.83c-0.246 4e-3 -0.496 0.023-0.742 0.055"/>
   <path id="path114573" d="m433.86 695.03c-0.172 0.047-0.336 0.114-0.496 0.196"/>
   <path id="path114575" d="m433.36 695.2c-0.328 0.172-0.609 0.422-0.816 0.727"/>
   <path id="path114577" d="m432.53 695.94c-0.242 0.364-0.371 0.797-0.371 1.235"/>
   <path id="path114579" d="m432.16 697.16c0 0.442 0.129 0.871 0.371 1.238"/>
   <path id="path114581" d="m432.54 698.41c0.207 0.309 0.488 0.555 0.816 0.727"/>
   <path id="path114583" d="m433.37 699.11c0.16 0.082 0.324 0.145 0.496 0.192"/>
   <path id="path114585" d="m434.17 699.45c0.246 0.031 0.496 0.051 0.742 0.059"/>
   <path id="path114587" d="m434.95 699.51c0.289 4e-3 0.574-4e-3 0.863-0.031"/>
   <path id="path114589" d="m436.52 699.24c0.309-0.066 0.571-0.277 0.704-0.566"/>
   <path id="path114591" d="m437.56 698.67h0.722v1.082"/>
   <path id="path114593" d="m438.76 700.11h1.441"/>
   <path id="path114595" d="m440.44 699.87v-5.277"/>
   <path id="path114597" d="m440.2 694.35h-0.84v-0.239h-0.359v0.239h-0.242"/>
   <path id="path114599" d="m434.96 698.91c0.265 4e-3 0.527-4e-3 0.789-0.027"/>
   <path id="path114601" d="m434.25 698.86c0.223 0.028 0.449 0.047 0.68 0.051"/>
   <path id="path114603" d="m433.04 698.08c0.141 0.211 0.332 0.383 0.559 0.508"/>
   <path id="path114605" d="m432.76 697.16c-4e-3 0.32 0.09 0.637 0.265 0.903"/>
   <path id="path114607" d="m433.03 696.27c-0.175 0.27-0.269 0.582-0.265 0.903"/>
   <path id="path114609" d="m433.6 695.75c-0.227 0.121-0.418 0.297-0.559 0.508"/>
   <path id="path114611" d="m434.93 695.43c-0.227 8e-3 -0.453 0.023-0.68 0.05"/>
   <path id="path114613" d="m435.75 695.58c-0.262-0.023-0.524-0.031-0.789-0.027"/>
   <path id="path114615" d="m438.28 698.67v-2.879"/>
  </g>
 </g>
 <g id="salaA102" fill="none" stroke="#000">
  <g stroke-width=".24">
   <path id="path109597" d="m403.96 688.95h10.078"/>
   <path id="path109599" d="m415.84 688.95h24.594"/>
   <path id="path109603" d="m403.96 670.47h10.078"/>
   <path id="path109605" d="m415.84 670.47h24.594"/>
   <path id="path109853" d="m440.44 688.95v-18.476"/>
   <path id="path110075" d="m414.04 671.67h1.801"/>
   <path id="path110077" d="m414.04 682.83h1.801"/>
   <path id="path110079" d="m414.04 671.67v-1.199"/>
   <path id="path110081" d="m415.84 671.67v-1.199"/>
   <path id="path110083" d="m415.84 682.83v6.117"/>
   <path id="path110085" d="m414.04 682.83v6.117"/>
  </g>
  <g stroke-width=".72">
   <path id="path110087" d="m439.72 673.11v7.317"/>
   <path id="path110089" d="m439.96 673.23v7.082"/>
   <path id="path110091" d="m439.6 673.11v7.317"/>
   <path id="path110093" d="m439.96 673.23v7.082"/>
   <path id="path110095" d="m439.84 680.25c0 0.371 0.199 0.715 0.523 0.895"/>
   <path id="path110097" d="m439.6 680.37c0 0.488 0.312 0.922 0.773 1.078"/>
   <path id="path110099" d="m439.48 680.37c0 0.551 0.356 1.035 0.879 1.203"/>
   <path id="path110101" d="m439.96 680.25c0 0.309 0.156 0.598 0.418 0.762"/>
   <path id="path110103" d="m440.44 681.75v-0.719"/>
   <path id="path110105" d="m440.44 681.63v-0.477"/>
   <path id="path110107" d="m439.96 675.51h0.477"/>
   <path id="path110109" d="m439.96 675.27h0.477"/>
   <path id="path110111" d="m439.96 675.15h0.477"/>
   <path id="path110113" d="m439.96 675.63h0.477"/>
   <path id="path110115" d="m440.37 671.97c-0.461 0.16-0.773 0.593-0.773 1.078"/>
   <path id="path110117" d="m440.36 672.28c-0.324 0.18-0.523 0.52-0.523 0.891"/>
   <path id="path110119" d="m440.36 671.85c-0.523 0.164-0.879 0.648-0.879 1.199"/>
   <path id="path110121" d="m440.38 672.41c-0.262 0.164-0.418 0.453-0.418 0.762"/>
   <path id="path110123" d="m440.44 671.79v0.719"/>
   <path id="path110125" d="m440.44 671.91v0.481"/>
   <path id="path110127" d="m424.6 671.31h10.918"/>
   <path id="path110129" d="m424.72 671.07h10.675"/>
   <path id="path110131" d="m424.72 670.95h10.675"/>
   <path id="path110133" d="m424.6 671.43h10.918"/>
   <path id="path110135" d="m438.64 675.51h0.957"/>
   <path id="path110137" d="m438.64 675.27h0.957"/>
   <path id="path110139" d="m438.64 675.63h0.957"/>
   <path id="path110141" d="m438.64 675.15h0.957"/>
   <path id="path110143" d="m435.46 671.19c0.484 0 0.918-0.308 1.078-0.769"/>
   <path id="path110145" d="m435.34 670.95c0.371 0 0.711-0.203 0.89-0.527"/>
   <path id="path110147" d="m436.72 670.47h-0.481"/>
   <path id="path110149" d="m436.84 670.47h-0.719"/>
   <path id="path110151" d="m435.46 671.31c0.551 0 1.035-0.359 1.199-0.882"/>
   <path id="path110153" d="m435.34 670.83c0.308 0 0.598-0.16 0.762-0.418"/>
   <path id="path110155" d="m423.77 670.43c0.179 0.324 0.519 0.527 0.89 0.527"/>
   <path id="path110157" d="m423.46 670.42c0.156 0.461 0.59 0.769 1.078 0.769"/>
   <path id="path110159" d="m423.4 670.47h0.598"/>
   <path id="path110161" d="m423.4 670.47h0.598"/>
   <path id="path110163" d="m423.34 670.43c0.164 0.523 0.652 0.882 1.203 0.882"/>
   <path id="path110165" d="m423.9 670.41c0.168 0.258 0.454 0.418 0.762 0.418"/>
   <path id="path110167" d="m434.68 674.79h1.199"/>
   <path id="path110169" d="m435.9 675.92c0.289-0.336 0.289-0.836 0-1.172"/>
   <path id="path110171" d="m435.88 675.87h-1.199"/>
   <path id="path110173" d="m434.39 674.97c-0.09 0.234-0.09 0.492 0 0.722"/>
   <path id="path110175" d="m435.74 673.71c-0.359-0.211-0.785-0.285-1.195-0.211"/>
   <path id="path110177" d="m434.52 673.38c-0.446 0.078-0.848 0.305-1.145 0.644"/>
   <path id="path110179" d="m433.45 674.12c-0.289 0.336-0.449 0.766-0.449 1.211"/>
   <path id="path110181" d="m433 675.33c0 0.445 0.16 0.879 0.449 1.215"/>
   <path id="path110183" d="m433.37 676.64c0.297 0.34 0.699 0.566 1.145 0.644"/>
   <path id="path110185" d="m434.54 677.16c0.41 0.074 0.836 0 1.195-0.211"/>
   <path id="path110187" d="m435.78 676.95c0.578-0.332 0.934-0.945 0.938-1.609"/>
   <path id="path110189" d="m436.72 675.32c-4e-3 -0.668-0.36-1.281-0.938-1.609"/>
   <path id="path110191" d="m435.72 673.82c-0.36-0.207-0.785-0.277-1.196-0.195"/>
   <path id="path110193" d="m434.54 673.62c-0.363 0.07-0.695 0.254-0.945 0.524"/>
   <path id="path110195" d="m433.6 674.13c-0.313 0.328-0.489 0.766-0.481 1.223"/>
   <path id="path110197" d="m433.12 675.31c-8e-3 0.454 0.168 0.895 0.481 1.223"/>
   <path id="path110199" d="m433.59 676.52c0.25 0.269 0.582 0.453 0.945 0.519"/>
   <path id="path110201" d="m434.53 677.04c0.411 0.082 0.836 0.012 1.196-0.199"/>
   <path id="path110203" d="m435.73 676.84c0.543-0.313 0.875-0.887 0.871-1.512"/>
   <path id="path110205" d="m436.6 675.34c4e-3 -0.625-0.328-1.203-0.871-1.512"/>
   <path id="path110207" d="m437.8 676.11v-1.562"/>
   <path id="path110209" d="m435.71 677.53c0.441-0.121 0.859-0.312 1.238-0.57"/>
   <path id="path110211" d="m434.48 677.65c0.422 0.051 0.852 0.016 1.258-0.105"/>
   <path id="path110213" d="m433.28 677.23c0.375 0.231 0.797 0.372 1.235 0.422"/>
   <path id="path110215" d="m432.39 676.41c0.238 0.305 0.531 0.567 0.859 0.77"/>
   <path id="path110217" d="m432.04 675.33c0 0.406 0.133 0.801 0.375 1.121"/>
   <path id="path110219" d="m432.41 674.21c-0.242 0.324-0.375 0.719-0.375 1.125"/>
   <path id="path110221" d="m433.25 673.48c-0.328 0.204-0.621 0.465-0.859 0.77"/>
   <path id="path110223" d="m434.52 673.01c-0.438 0.05-0.86 0.191-1.235 0.418"/>
   <path id="path110225" d="m435.74 673.12c-0.406-0.121-0.836-0.16-1.258-0.105"/>
   <path id="path110227" d="m436.94 673.71c-0.379-0.258-0.797-0.449-1.238-0.57"/>
   <path id="path110229" d="m437.64 674.41c-0.207-0.23-0.442-0.433-0.696-0.609"/>
   <path id="path110231" d="m437.8 674.43v0.117h0.719"/>
   <path id="path110233" d="m438.64 674.79v1.199"/>
   <path id="path110235" d="m438.52 676.11h-0.719v0.239"/>
   <path id="path110237" d="m436.94 676.87c0.254-0.176 0.489-0.379 0.696-0.609"/>
   <path id="path110239" d="m437.7 674.46c-0.222-0.254-0.472-0.477-0.75-0.668"/>
   <path id="path110241" d="m436.88 673.8c-0.52-0.356-1.117-0.582-1.746-0.66"/>
   <path id="path110243" d="m435.16 673.12c-0.218-0.02-0.441-0.02-0.656 8e-3"/>
   <path id="path110245" d="m434.52 673.01c-0.438 0.05-0.86 0.191-1.235 0.418"/>
   <path id="path110247" d="m433.25 673.48c-0.328 0.204-0.621 0.465-0.859 0.77"/>
   <path id="path110249" d="m432.51 674.28c-0.231 0.301-0.352 0.672-0.352 1.051"/>
   <path id="path110251" d="m432.16 675.33c0 0.379 0.121 0.746 0.352 1.051"/>
   <path id="path110253" d="m432.39 676.41c0.238 0.305 0.531 0.567 0.859 0.77"/>
   <path id="path110255" d="m433.28 677.23c0.375 0.231 0.797 0.372 1.235 0.422"/>
   <path id="path110257" d="m434.5 677.53c0.215 0.028 0.438 0.032 0.656 8e-3"/>
   <path id="path110259" d="m435.13 677.52c0.629-0.082 1.226-0.309 1.746-0.661"/>
   <path id="path110261" d="m436.94 676.87c0.278-0.191 0.528-0.414 0.75-0.668"/>
   <path id="path110263" d="m438.04 674.91v0.961"/>
   <path id="path110265" d="m437.8 674.79h0.48"/>
   <path id="path110267" d="m438.4 674.79v1.199"/>
   <path id="path110269" d="m437.8 675.99h0.48"/>
  </g>
  <g stroke-width=".24">
   <path id="path112145" d="m414.04 684.39v3.839"/>
   <path id="path112163" d="m440.44 684.39v3.839"/>
   <path id="path112195" d="m440.44 687.75v-4.801"/>
  </g>
  <g stroke-width=".72">
   <path id="path114147" d="m414.04 671.67h-11.16"/>
   <path id="path114149" d="m402.88 671.67v0.359h11.16"/>
   <path id="path114151" d="m402.93 671.99c1.558 5.254 5.754 9.309 11.058 10.692"/>
   <path id="path114195" d="m423.76 685.65c0-1.355-1.102-2.457-2.461-2.457"/>
  </g>
  <g stroke-width=".24">
   <path id="path114197" d="m415.84 682.83v6.117"/>
   <path id="path114199" d="m415.84 682.83v6.117h8.039"/>
   <path id="path114201" d="m421.43 686.32c0.367-0.789 0.144-1.726-0.543-2.258-0.688-0.535-1.653-0.519-2.324 0.032-0.672 0.554-0.868 1.5-0.477 2.273"/>
   <path id="path114203" d="m418.56 686.97c0.446 0.363 1.032 0.504 1.59 0.375 0.563-0.129 1.032-0.504 1.274-1.024"/>
   <path id="path114205" d="m421.7 686.57c0.5-0.941 0.258-2.105-0.574-2.773-0.828-0.664-2.016-0.649-2.828 0.043-0.809 0.695-1.016 1.863-0.489 2.789"/>
   <path id="path114207" d="m418.32 687.23c0.512 0.43 1.192 0.602 1.848 0.473s1.223-0.547 1.535-1.137"/>
   <path id="path114209" d="m420.04 685.53c0-0.168-0.137-0.301-0.301-0.301-0.168 0-0.301 0.133-0.301 0.301 0 0.164 0.133 0.301 0.301 0.301 0.164 0 0.301-0.137 0.301-0.301"/>
  </g>
  <g stroke-width=".72">
   <path id="path114211" d="m418.6 685.95-0.961 0.961"/>
   <path id="path114213" d="m418.24 687.51 0.84-0.961"/>
   <path id="path114215" d="m418.24 687.33c0-0.297-0.242-0.539-0.539-0.539-0.301 0-0.539 0.242-0.539 0.539 0 0.301 0.238 0.543 0.539 0.543 0.297 0 0.539-0.242 0.539-0.543"/>
   <path id="path114217" d="m418.12 687.33c0-0.23-0.187-0.418-0.418-0.418-0.234 0-0.422 0.188-0.422 0.418 0 0.234 0.188 0.422 0.422 0.422 0.231 0 0.418-0.188 0.418-0.422"/>
   <path id="path114219" d="m417.04 687.75 0.48 0.359"/>
   <path id="path114221" d="m421.36 683.19h-5.519"/>
   <path id="path114223" d="m421.84 682.83h-5.996"/>
   <path id="path114225" d="m424.24 685.23v3.719"/>
   <path id="path114227" d="m424.24 685.17c0-1.36-1.101-2.461-2.461-2.461"/>
   <path id="path114229" d="m423.88 685.71v3.238"/>
  </g>
 </g>
 <g id="salaA103" fill="none" stroke="#000">
  <path id="path109093" d="m391.6 668.55v-51.113" stroke-width=".72"/>
  <path id="path109607" d="m391.6 668.55h1.321" stroke-width=".24"/>
  <path id="path109609" d="m403.96 668.55h36.473" stroke-width=".24"/>
  <g stroke-width=".72">
   <path id="path109855" d="m424.12 668.55v-2.278"/>
   <path id="path109857" d="m424.12 658.83v-5.156"/>
   <path id="path109859" d="m424.48 668.55v-2.278"/>
   <path id="path109861" d="m424.48 658.83v-2.398"/>
   <path id="path109863" d="m440.44 656.07h-15.958v-2.398"/>
   <path id="path109865" d="m424.48 656.43h15.958"/>
   <path id="path109867" d="m424.48 665.91v0.359h7.441v-0.359h-7.441"/>
   <path id="path109869" d="m431.92 665.91-0.242-1.441-0.481-1.321-0.597-1.199-0.961-1.078-1.079-0.84-1.32-0.723-1.32-0.359-1.442-0.121"/>
   <path id="path109871" d="m424.12 658.83v7.441"/>
   <path id="path109873" d="m424.12 646.36v-5.16"/>
   <path id="path109875" d="m424.48 646.36v-2.398"/>
   <path id="path109877" d="m440.44 643.6h-15.958v-2.403"/>
   <path id="path109879" d="m424.48 643.96h15.958"/>
   <path id="path109881" d="m424.48 653.43v0.359h7.441v-0.359h-7.441"/>
   <path id="path109883" d="m431.92 653.43-0.242-1.438-0.481-1.32-0.597-1.199-0.961-1.082-1.079-0.84-1.32-0.719-1.32-0.359-1.442-0.122"/>
   <path id="path109885" d="m424.12 646.36v7.438"/>
   <path id="path109887" d="m424.12 633.88v-5.16"/>
   <path id="path109889" d="m424.48 633.88v-2.402"/>
   <path id="path109891" d="m440.44 631.12h-15.958v-2.398"/>
   <path id="path109893" d="m424.48 631.48h15.958"/>
   <path id="path109895" d="m424.48 640.96v0.359h7.441v-0.359h-7.441"/>
   <path id="path109897" d="m431.92 640.96-0.242-1.441-0.481-1.321-0.597-1.199-0.961-1.078-1.079-0.84-1.32-0.723-1.32-0.359-1.442-0.117"/>
   <path id="path109899" d="m424.12 633.88v7.437"/>
   <path id="path109901" d="m424.12 621.4v-1.679"/>
   <path id="path109903" d="m424.12 621.4h0.359v-1.679"/>
   <path id="path109905" d="m424.48 628.36v0.477h7.441v-0.477h-7.441"/>
   <path id="path109907" d="m431.92 628.36-0.242-1.32-0.481-1.32-0.597-1.199-0.961-1.082-1.079-0.84-1.32-0.719-1.32-0.359-1.442-0.122"/>
   <path id="path109909" d="m424.12 621.4v7.438"/>
  </g>
  <g stroke-width=".24">
   <path id="path109911" d="m406.48 655.36h-14.879"/>
   <path id="path109913" d="m406.48 656.68h-14.879"/>
   <path id="path109919" d="m406.48 656.68v-1.321"/>
  </g>
  <g stroke-width=".72">
   <path id="path109921" d="m399.04 617.44v37.917"/>
   <path id="path109923" d="m393.43 650.75c0.027 0.23 0.078 0.461 0.152 0.684"/>
   <path id="path109925" d="m393.67 651.48c0.105 0.309 0.262 0.594 0.469 0.844"/>
   <path id="path109927" d="m394.15 652.26c0.196 0.238 0.438 0.433 0.715 0.574"/>
   <path id="path109929" d="m394.78 652.99c0.262 0.133 0.547 0.203 0.84 0.203"/>
   <path id="path109931" d="m395.62 653.2c0.293 0 0.578-0.07 0.84-0.203"/>
   <path id="path109933" d="m396.51 652.84c0.277-0.141 0.519-0.336 0.715-0.574"/>
   <path id="path109935" d="m397.23 652.32c0.204-0.25 0.364-0.535 0.469-0.844"/>
   <path id="path109937" d="m397.67 651.43c0.113-0.34 0.172-0.7 0.172-1.059"/>
   <path id="path109939" d="m397.84 650.38c0-0.359-0.059-0.719-0.172-1.059"/>
   <path id="path109941" d="m397.7 649.39c-0.105-0.305-0.265-0.59-0.469-0.84"/>
   <path id="path109943" d="m397.22 648.61c-0.196-0.238-0.438-0.433-0.715-0.574"/>
   <path id="path109945" d="m396.46 647.88c-0.262-0.133-0.547-0.199-0.84-0.199"/>
   <path id="path109947" d="m395.62 647.68c-0.293 0-0.578 0.066-0.84 0.199"/>
   <path id="path109949" d="m394.86 648.04c-0.277 0.141-0.519 0.336-0.715 0.574"/>
   <path id="path109951" d="m394.14 648.55c-0.207 0.25-0.364 0.535-0.469 0.84"/>
   <path id="path109953" d="m393.58 649.32c-0.07 0.207-0.117 0.422-0.144 0.641"/>
   <path id="path109955" d="m394.73 650.91h-1.442"/>
   <path id="path109957" d="m393.28 650.07h1.442"/>
   <path id="path109959" d="m392.98 650.91c0.301 0 0.539-0.242 0.539-0.539s-0.238-0.539-0.539-0.539c-0.296 0-0.539 0.242-0.539 0.539s0.243 0.539 0.539 0.539"/>
   <path id="path109961" d="m392.98 650.79c0.235 0 0.422-0.188 0.422-0.418s-0.187-0.422-0.422-0.422c-0.23 0-0.418 0.192-0.418 0.422s0.188 0.418 0.418 0.418"/>
   <path id="path109963" d="m392.32 650.79v-0.719"/>
   <path id="path109965" d="m395.62 650.68c0.164 0 0.301-0.137 0.301-0.301s-0.137-0.301-0.301-0.301-0.301 0.137-0.301 0.301 0.137 0.301 0.301 0.301"/>
   <path id="path109967" d="m391.6 645.52h7.438"/>
   <path id="path109969" d="m399.16 645.64v9.718"/>
   <path id="path109971" d="m399.64 645.64v9.718"/>
   <path id="path109973" d="m393.58 637.44c-0.074 0.222-0.125 0.453-0.152 0.683"/>
   <path id="path109975" d="m394.14 636.55c-0.207 0.25-0.364 0.535-0.469 0.844"/>
   <path id="path109977" d="m394.86 636.04c-0.277 0.141-0.519 0.336-0.715 0.574"/>
   <path id="path109979" d="m395.62 635.68c-0.293 0-0.578 0.07-0.84 0.203"/>
   <path id="path109981" d="m396.46 635.88c-0.262-0.133-0.547-0.203-0.84-0.203"/>
   <path id="path109983" d="m397.22 636.61c-0.196-0.238-0.438-0.433-0.715-0.574"/>
   <path id="path109985" d="m397.7 637.39c-0.105-0.309-0.265-0.594-0.469-0.844"/>
   <path id="path109987" d="m397.84 638.5c0-0.359-0.059-0.719-0.172-1.058"/>
   <path id="path109989" d="m397.67 639.56c0.113-0.34 0.172-0.7 0.172-1.059"/>
   <path id="path109991" d="m397.23 640.32c0.204-0.25 0.364-0.535 0.469-0.84"/>
   <path id="path109993" d="m396.51 640.96c0.277-0.141 0.519-0.336 0.715-0.574"/>
   <path id="path109995" d="m395.62 641.2c0.293 0 0.578-0.066 0.84-0.199"/>
   <path id="path109997" d="m394.78 641c0.262 0.133 0.547 0.199 0.84 0.199"/>
   <path id="path109999" d="m394.15 640.38c0.196 0.238 0.438 0.433 0.715 0.574"/>
   <path id="path110001" d="m393.67 639.48c0.105 0.305 0.262 0.59 0.469 0.84"/>
   <path id="path110003" d="m393.43 638.91c0.027 0.219 0.074 0.434 0.144 0.641"/>
   <path id="path110005" d="m394.73 638.2h-1.442"/>
   <path id="path110007" d="m393.28 638.92h1.442"/>
   <path id="path110009" d="m392.98 637.96c-0.296 0-0.539 0.242-0.539 0.539s0.243 0.539 0.539 0.539c0.301 0 0.539-0.242 0.539-0.539s-0.238-0.539-0.539-0.539"/>
   <path id="path110011" d="m392.98 638.08c-0.23 0-0.418 0.188-0.418 0.418 0 0.231 0.188 0.422 0.418 0.422 0.235 0 0.422-0.191 0.422-0.422 0-0.23-0.187-0.418-0.422-0.418"/>
   <path id="path110013" d="m392.32 638.2v0.723"/>
   <path id="path110015" d="m395.62 638.2c-0.164 0-0.301 0.137-0.301 0.301s0.137 0.301 0.301 0.301 0.301-0.137 0.301-0.301-0.137-0.301-0.301-0.301"/>
   <path id="path110017" d="m393.58 623.64c-0.074 0.218-0.125 0.449-0.152 0.683"/>
   <path id="path110019" d="m394.14 622.87c-0.207 0.254-0.364 0.539-0.469 0.844"/>
   <path id="path110021" d="m394.86 622.36c-0.277 0.137-0.519 0.332-0.715 0.575"/>
   <path id="path110023" d="m395.62 622c-0.293 0-0.578 0.066-0.84 0.199"/>
   <path id="path110025" d="m396.46 622.2c-0.262-0.133-0.547-0.199-0.84-0.199"/>
   <path id="path110027" d="m397.22 622.93c-0.196-0.243-0.438-0.438-0.715-0.575"/>
   <path id="path110029" d="m397.7 623.71c-0.105-0.305-0.265-0.59-0.469-0.844"/>
   <path id="path110031" d="m397.84 624.7c0-0.359-0.059-0.719-0.172-1.058"/>
   <path id="path110033" d="m397.67 625.76c0.113-0.34 0.172-0.699 0.172-1.059"/>
   <path id="path110035" d="m397.23 626.65c0.204-0.25 0.364-0.535 0.469-0.843"/>
   <path id="path110037" d="m396.51 627.16c0.277-0.14 0.519-0.336 0.715-0.578"/>
   <path id="path110039" d="m395.62 627.52c0.293 0 0.578-0.071 0.84-0.204"/>
   <path id="path110041" d="m394.78 627.32c0.262 0.133 0.547 0.204 0.84 0.204"/>
   <path id="path110043" d="m394.15 626.58c0.196 0.242 0.438 0.438 0.715 0.578"/>
   <path id="path110045" d="m393.67 625.8c0.105 0.308 0.262 0.593 0.469 0.843"/>
   <path id="path110047" d="m393.43 625.12c0.027 0.219 0.074 0.434 0.144 0.641"/>
   <path id="path110049" d="m394.73 624.4h-1.442"/>
   <path id="path110051" d="m393.28 625.24h1.442"/>
   <path id="path110053" d="m392.98 624.28c-0.296 0-0.539 0.243-0.539 0.539 0 0.301 0.243 0.543 0.539 0.543 0.301 0 0.539-0.242 0.539-0.543 0-0.296-0.238-0.539-0.539-0.539"/>
   <path id="path110055" d="m392.98 624.4c-0.23 0-0.418 0.188-0.418 0.418 0 0.235 0.188 0.422 0.418 0.422 0.235 0 0.422-0.187 0.422-0.422 0-0.23-0.187-0.418-0.422-0.418"/>
   <path id="path110057" d="m392.32 624.52v0.597"/>
   <path id="path110059" d="m395.62 624.4c-0.164 0-0.301 0.133-0.301 0.301 0 0.164 0.137 0.301 0.301 0.301s0.301-0.137 0.301-0.301c0-0.168-0.137-0.301-0.301-0.301"/>
  </g>
  <path id="path110073" d="m391.6 617.44h48.833v51.113" stroke-width=".24"/>
  <path id="path114153" d="m392.93 657.52v11.035" stroke-width=".72"/>
  <path id="path114155" d="m392.93 668.55h0.359v-11.035h-0.359" stroke-width=".72"/>
  <path id="path114157" d="m403.99 668.47c-0.988-5.559-5.246-9.961-10.765-11.137" stroke-width=".24"/>
  <path id="path114159" d="m391.6 657.88v3.598" stroke-width=".24"/>
  <g stroke-width=".72">
   <path id="path114617" d="m435.04 663.27h0.961"/>
   <path id="path114619" d="m435.9 663.16c0.137-0.351 0.137-0.734 0-1.086"/>
   <path id="path114621" d="m436 662.07h-0.961"/>
   <path id="path114623" d="m434.54 662.29c-0.137 0.191-0.137 0.449 0 0.641"/>
   <path id="path114625" d="m436.72 661.23h0.84"/>
   <path id="path114627" d="m436.72 664.11h0.84"/>
   <path id="path114629" d="m436.72 663.99v-2.64"/>
   <path id="path114631" d="m438.28 660.15v1.082h-0.722"/>
   <path id="path114633" d="m437.23 661.1c-0.133-0.289-0.395-0.496-0.704-0.566"/>
   <path id="path114635" d="m435.82 660.43c-0.289-0.028-0.574-0.035-0.863-0.031"/>
   <path id="path114637" d="m434.91 660.28c-0.246 4e-3 -0.496 0.024-0.742 0.055"/>
   <path id="path114639" d="m433.86 660.48c-0.172 0.046-0.336 0.109-0.496 0.191"/>
   <path id="path114641" d="m433.36 660.64c-0.328 0.172-0.609 0.418-0.816 0.726"/>
   <path id="path114643" d="m432.53 661.39c-0.242 0.363-0.371 0.793-0.371 1.234"/>
   <path id="path114645" d="m432.16 662.6c0 0.442 0.129 0.872 0.371 1.235"/>
   <path id="path114647" d="m432.54 663.86c0.207 0.309 0.488 0.555 0.816 0.727"/>
   <path id="path114649" d="m433.37 664.56c0.16 0.082 0.324 0.144 0.496 0.191"/>
   <path id="path114651" d="m434.17 664.9c0.246 0.031 0.496 0.05 0.742 0.054"/>
   <path id="path114653" d="m434.95 664.83c0.289 4e-3 0.574-4e-3 0.863-0.031"/>
   <path id="path114655" d="m436.52 664.69c0.309-0.071 0.571-0.278 0.704-0.567"/>
   <path id="path114657" d="m437.56 664.11h0.722v1.078"/>
   <path id="path114659" d="m438.76 665.56h1.441"/>
   <path id="path114661" d="m440.44 665.31v-5.277"/>
   <path id="path114663" d="m440.2 659.79h-0.84v-0.238h-0.359v0.238h-0.242"/>
   <path id="path114665" d="m434.96 664.23c0.265 8e-3 0.527-3e-3 0.789-0.027"/>
   <path id="path114667" d="m434.25 664.3c0.223 0.027 0.449 0.043 0.68 0.051"/>
   <path id="path114669" d="m433.04 663.53c0.141 0.211 0.332 0.383 0.559 0.504"/>
   <path id="path114671" d="m432.76 662.6c-4e-3 0.321 0.09 0.633 0.265 0.903"/>
   <path id="path114673" d="m433.03 661.72c-0.175 0.269-0.269 0.582-0.265 0.902"/>
   <path id="path114675" d="m433.6 661.2c-0.227 0.121-0.418 0.293-0.559 0.504"/>
   <path id="path114677" d="m434.93 660.88c-0.227 8e-3 -0.453 0.023-0.68 0.051"/>
   <path id="path114679" d="m435.75 661.02c-0.262-0.023-0.524-0.035-0.789-0.027"/>
   <path id="path114681" d="m438.28 664.11v-2.879"/>
   <path id="path114683" d="m435.04 650.56h0.961"/>
   <path id="path114685" d="m435.9 650.44c0.137-0.348 0.137-0.735 0-1.086"/>
   <path id="path114687" d="m436 649.36h-0.961"/>
   <path id="path114689" d="m434.54 649.57c-0.137 0.192-0.137 0.449 0 0.641"/>
   <path id="path114691" d="m436.72 648.52h0.84"/>
   <path id="path114693" d="m436.72 651.4h0.84"/>
   <path id="path114695" d="m436.72 651.27v-2.636"/>
   <path id="path114697" d="m438.28 647.43v1.082h-0.722"/>
   <path id="path114699" d="m437.23 648.39c-0.133-0.289-0.395-0.496-0.704-0.567"/>
   <path id="path114701" d="m435.82 647.71c-0.289-0.027-0.574-0.035-0.863-0.031"/>
   <path id="path114703" d="m434.91 647.56c-0.246 4e-3 -0.496 0.023-0.742 0.054"/>
   <path id="path114705" d="m433.86 647.76c-0.172 0.047-0.336 0.113-0.496 0.195"/>
   <path id="path114707" d="m433.36 647.92c-0.328 0.172-0.609 0.422-0.816 0.726"/>
   <path id="path114709" d="m432.53 648.67c-0.242 0.363-0.371 0.797-0.371 1.234"/>
   <path id="path114711" d="m432.16 649.89c0 0.441 0.129 0.871 0.371 1.238"/>
   <path id="path114713" d="m432.54 651.14c0.207 0.308 0.488 0.554 0.816 0.726"/>
   <path id="path114715" d="m433.37 651.84c0.16 0.082 0.324 0.144 0.496 0.191"/>
   <path id="path114717" d="m434.17 652.18c0.246 0.031 0.496 0.051 0.742 0.054"/>
   <path id="path114719" d="m434.95 652.11c0.289 4e-3 0.574-4e-3 0.863-0.031"/>
   <path id="path114721" d="m436.52 651.97c0.309-0.071 0.571-0.278 0.704-0.567"/>
   <path id="path114723" d="m437.56 651.4h0.722v1.078"/>
   <path id="path114725" d="m438.76 652.84h1.441"/>
   <path id="path114727" d="m440.44 652.59v-5.278"/>
   <path id="path114729" d="m440.2 647.07h-0.84v-0.238h-0.359v0.238h-0.242"/>
   <path id="path114731" d="m434.96 651.51c0.265 8e-3 0.527-4e-3 0.789-0.028"/>
   <path id="path114733" d="m434.25 651.58c0.223 0.027 0.449 0.043 0.68 0.051"/>
   <path id="path114735" d="m433.04 650.81c0.141 0.211 0.332 0.382 0.559 0.507"/>
   <path id="path114737" d="m432.76 649.89c-4e-3 0.32 0.09 0.633 0.265 0.902"/>
   <path id="path114739" d="m433.03 649c-0.175 0.27-0.269 0.582-0.265 0.902"/>
   <path id="path114741" d="m433.6 648.48c-0.227 0.121-0.418 0.296-0.559 0.503"/>
   <path id="path114743" d="m434.93 648.16c-0.227 8e-3 -0.453 0.024-0.68 0.051"/>
   <path id="path114745" d="m435.75 648.3c-0.262-0.024-0.524-0.032-0.789-0.028"/>
   <path id="path114747" d="m438.28 651.4v-2.879"/>
   <path id="path114749" d="m435.04 638.32h0.961"/>
   <path id="path114751" d="m435.9 638.2c0.137-0.347 0.137-0.734 0-1.086"/>
   <path id="path114753" d="m436 637.12h-0.961"/>
   <path id="path114755" d="m434.54 637.34c-0.137 0.191-0.137 0.449 0 0.641"/>
   <path id="path114757" d="m436.72 636.28h0.84"/>
   <path id="path114759" d="m436.72 639.16h0.84"/>
   <path id="path114761" d="m436.72 639.04v-2.637"/>
   <path id="path114763" d="m438.28 635.2v1.082h-0.722"/>
   <path id="path114765" d="m437.23 636.15c-0.133-0.289-0.395-0.496-0.704-0.566"/>
   <path id="path114767" d="m435.82 635.47c-0.289-0.028-0.574-0.035-0.863-0.031"/>
   <path id="path114769" d="m434.91 635.32c-0.246 4e-3 -0.496 0.024-0.742 0.055"/>
   <path id="path114771" d="m433.86 635.52c-0.172 0.046-0.336 0.109-0.496 0.191"/>
   <path id="path114773" d="m433.36 635.68c-0.328 0.171-0.609 0.421-0.816 0.726"/>
   <path id="path114775" d="m432.53 636.43c-0.242 0.363-0.371 0.793-0.371 1.234"/>
   <path id="path114777" d="m432.16 637.65c0 0.442 0.129 0.872 0.371 1.235"/>
   <path id="path114779" d="m432.54 638.9c0.207 0.309 0.488 0.555 0.816 0.727"/>
   <path id="path114781" d="m433.37 639.6c0.16 0.082 0.324 0.144 0.496 0.191"/>
   <path id="path114783" d="m434.17 639.94c0.246 0.031 0.496 0.05 0.742 0.054"/>
   <path id="path114785" d="m434.95 639.88c0.289 4e-3 0.574-4e-3 0.863-0.031"/>
   <path id="path114787" d="m436.52 639.73c0.309-0.07 0.571-0.277 0.704-0.566"/>
   <path id="path114789" d="m437.56 639.16h0.722v1.078"/>
   <path id="path114791" d="m438.76 640.6h1.441"/>
   <path id="path114793" d="m440.44 640.36v-5.277"/>
   <path id="path114795" d="m440.2 634.84h-0.84v-0.238h-0.359v0.238h-0.242"/>
   <path id="path114797" d="m434.96 639.27c0.265 8e-3 0.527-3e-3 0.789-0.027"/>
   <path id="path114799" d="m434.25 639.34c0.223 0.027 0.449 0.043 0.68 0.051"/>
   <path id="path114801" d="m433.04 638.57c0.141 0.211 0.332 0.383 0.559 0.508"/>
   <path id="path114803" d="m432.76 637.65c-4e-3 0.321 0.09 0.633 0.265 0.903"/>
   <path id="path114805" d="m433.03 636.76c-0.175 0.269-0.269 0.582-0.265 0.902"/>
   <path id="path114807" d="m433.6 636.24c-0.227 0.121-0.418 0.297-0.559 0.504"/>
   <path id="path114809" d="m434.93 635.92c-0.227 8e-3 -0.453 0.023-0.68 0.051"/>
   <path id="path114811" d="m435.75 636.07c-0.262-0.023-0.524-0.035-0.789-0.027"/>
   <path id="path114813" d="m438.28 639.16v-2.879"/>
   <path id="path114815" d="m435.04 625.36h0.961"/>
   <path id="path114817" d="m435.9 625.24c0.137-0.347 0.137-0.734 0-1.082"/>
   <path id="path114819" d="m436 624.16h-0.961"/>
   <path id="path114821" d="m434.54 624.38c-0.137 0.191-0.137 0.449 0 0.637"/>
   <path id="path114823" d="m436.72 623.32h0.84"/>
   <path id="path114825" d="m436.72 626.2h0.84"/>
   <path id="path114827" d="m436.72 626.08v-2.64"/>
   <path id="path114829" d="m438.28 622.24v1.082h-0.722"/>
   <path id="path114831" d="m437.23 623.19c-0.133-0.289-0.395-0.5-0.704-0.566"/>
   <path id="path114833" d="m435.82 622.51c-0.289-0.028-0.574-0.039-0.863-0.032"/>
   <path id="path114835" d="m434.91 622.36c-0.246 8e-3 -0.496 0.028-0.742 0.059"/>
   <path id="path114837" d="m433.86 622.56c-0.172 0.046-0.336 0.109-0.496 0.191"/>
   <path id="path114839" d="m433.36 622.73c-0.328 0.168-0.609 0.418-0.816 0.722"/>
   <path id="path114841" d="m432.53 623.47c-0.242 0.367-0.371 0.797-0.371 1.238"/>
   <path id="path114843" d="m432.16 624.69c0 0.438 0.129 0.868 0.371 1.235"/>
   <path id="path114845" d="m432.54 625.94c0.207 0.305 0.488 0.555 0.816 0.723"/>
   <path id="path114847" d="m433.37 626.64c0.16 0.082 0.324 0.148 0.496 0.195"/>
   <path id="path114849" d="m434.17 626.98c0.246 0.032 0.496 0.047 0.742 0.055"/>
   <path id="path114851" d="m434.95 626.92c0.289 4e-3 0.574-8e-3 0.863-0.031"/>
   <path id="path114853" d="m436.52 626.77c0.309-0.07 0.571-0.281 0.704-0.566"/>
   <path id="path114855" d="m437.56 626.2h0.722v1.078"/>
   <path id="path114857" d="m438.76 627.64h1.441"/>
   <path id="path114859" d="m440.44 627.4v-5.281"/>
   <path id="path114861" d="m440.2 621.88h-0.84v-0.242h-0.359v0.242h-0.242"/>
   <path id="path114863" d="m434.96 626.32c0.265 4e-3 0.527-3e-3 0.789-0.027"/>
   <path id="path114865" d="m434.25 626.39c0.223 0.027 0.449 0.043 0.68 0.051"/>
   <path id="path114867" d="m433.04 625.61c0.141 0.211 0.332 0.387 0.559 0.508"/>
   <path id="path114869" d="m432.76 624.69c-4e-3 0.321 0.09 0.633 0.265 0.899"/>
   <path id="path114871" d="m433.03 623.8c-0.175 0.265-0.269 0.582-0.265 0.902"/>
   <path id="path114873" d="m433.6 623.28c-0.227 0.125-0.418 0.297-0.559 0.508"/>
   <path id="path114875" d="m434.93 622.96c-0.227 4e-3 -0.453 0.023-0.68 0.051"/>
   <path id="path114877" d="m435.75 623.11c-0.262-0.023-0.524-0.035-0.789-0.031"/>
   <path id="path114879" d="m438.28 626.2v-2.879"/>
  </g>
 </g>
 <g id="salaA104" fill="none" stroke="#000">
  <path id="path109323" d="m389.8 565.6v3" stroke-width=".24"/>
  <path id="path109325" d="m389.8 587.08v6.121" stroke-width=".24"/>
  <path id="path109327" d="m389.8 608.44v47.19" stroke-width=".24218"/>
  <path id="path109347" d="m241.86 565.6h147.94" stroke-width=".24"/>
  <path id="path110589" d="m389.8 587.08v-18.477" stroke-width=".72"/>
  <path id="path110597" d="m389.8 608.44v-18.48" stroke-width=".72"/>
  <path id="path113783" d="m389.94 655.59h-60.368" stroke-width=".24444"/>
  <path id="path113789" d="m329.57 655.59h-87.718" stroke-width=".24459"/>
  <path id="path114137" d="m241.86 579.16-7e-3 76.43" stroke-width=".24"/>
  <path id="path114257" d="m241.86 566.93v0.359h9.84v-0.359h-9.84" stroke-width=".72"/>
  <path id="path114259" d="m241.75 579.15c5.836-0.886 10.066-6.019 9.828-11.918" stroke-width=".72"/>
 </g>
 <g id="salaA105" fill="none" stroke="#000">
  <path id="path109317" d="m389.8 464.22v23.277" stroke-width=".24"/>
  <path id="path109319" d="m389.8 505.97v9.961" stroke-width=".24"/>
  <path id="path109321" d="m389.8 561.77v2.039" stroke-width=".24"/>
  <path id="path109349" d="m241.87 563.8h87.825" stroke-width=".24456"/>
  <path id="path109353" d="m329.7 563.8h60.11" stroke-width=".24"/>
  <path id="path109387" d="m241.86 477.78v86.007" stroke-width=".75219"/>
  <path id="path109565" d="m242.22 464.22h147.59" stroke-width=".24119"/>
  <g stroke-width=".72">
   <path id="path110565" d="m389.8 505.97v-18.477"/>
   <path id="path110573" d="m389.8 534.41v-18.476"/>
   <path id="path110581" d="m389.8 561.77v-18.477"/>
  </g>
  <path id="path113093" d="m389.8 543.29v-8.879" stroke-width=".24"/>
  <path id="path114263" d="m241.86 465.42v0.359h9.84v-0.359h-9.84" stroke-width=".72"/>
  <path id="path114265" d="m241.75 477.64c5.836-0.887 10.066-6.02 9.828-11.915" stroke-width=".72"/>
 </g>
 <g id="salaA106" fill="none" stroke="#000">
  <path id="path109567" d="m241.86 462.3h87.711" stroke-width=".24"/>
  <path id="path109571" d="m329.57 462.3h60.231v-10.442" stroke-width=".24"/>
  <path id="path109573" d="m389.8 403.87v-10.558" stroke-width=".24"/>
  <path id="path110549" d="m389.8 422.34v-18.477" stroke-width=".72"/>
  <path id="path110557" d="m389.8 451.86v-18.476" stroke-width=".72"/>
  <path id="path112917" d="m241.86 393.31h147.94" stroke-width=".3784"/>
  <path id="path113089" d="m389.8 433.38v-11.039" stroke-width=".24"/>
  <path id="path113969" d="m241.86 448.74v-55.433" stroke-width=".24"/>
  <path id="path114269" d="m241.86 460.74v0.363h9.84v-0.363h-9.84" stroke-width=".72"/>
  <path id="path114289" d="m251.56 460.76c-0.782-5.504-4.582-10.11-9.836-11.926" stroke-width=".72"/>
 </g>
 <g id="salaA107" fill="none" stroke="#000">
  <path id="path109379" d="m241.86 336.56v54.956" stroke-width=".73212"/>
  <path id="path109575" d="m242.23 323h147.58" stroke-width=".23971"/>
  <path id="path110533" d="m389.8 351.43v-18.598" stroke-width=".72"/>
  <path id="path110541" d="m389.8 381.67v-18.481" stroke-width=".72"/>
  <path id="path112919" d="m241.82 391.51h148.02" stroke-width=".24104"/>
  <path id="path112985" d="m389.8 363.19v-11.757" stroke-width=".24"/>
  <path id="path112989" d="m389.8 381.67v9.8575" stroke-width=".26583"/>
  <path id="path113085" d="m389.8 323v9.84" stroke-width=".24"/>
  <path id="path114273" d="m241.86 324.2v0.359h9.84v-0.359h-9.84" stroke-width=".72"/>
  <path id="path114275" d="m241.75 336.43c5.836-0.887 10.066-6.02 9.828-11.918" stroke-width=".72"/>
 </g>
 <g id="salaA108" fill="none" stroke="#000">
  <path id="path109373" d="m241.86 263.69v43.956" stroke-width=".73661"/>
  <path id="path109577" d="m242.22 321.2h147.59" stroke-width=".24118"/>
  <path id="path110359" d="m389.8 288.44v-18.476" stroke-width=".72"/>
  <path id="path110525" d="m389.8 314.96v-18.477" stroke-width=".72"/>
  <path id="path112911" d="m241.84 263.73h148" stroke-width=".317"/>
  <path id="path113075" d="m389.8 263.74v6.2243" stroke-width=".28808"/>
  <path id="path113077" d="m389.8 296.48v-8.039" stroke-width=".24"/>
  <path id="path113081" d="m389.8 314.96v6.242" stroke-width=".25521"/>
  <path id="path114285" d="m241.86 319.52v0.359h9.84v-0.359h-9.84" stroke-width=".72"/>
  <path id="path114287" d="m251.58 319.48c0.129-5.859-4.051-10.929-9.828-11.918" stroke-width=".72"/>
 </g>
 <g id="salaA109" fill="none" stroke="#000">
  <path id="path109313" d="m389.8 189.7v17.039" stroke-width=".24"/>
  <path id="path109315" d="m389.8 225.21v15.238" stroke-width=".24"/>
  <path id="path109369" d="m241.86 189.71v57.934" stroke-width=".72365"/>
  <path id="path109371" d="m241.86 260.01v1.918" stroke-width=".72"/>
  <path id="path110301" d="m389.8 189.7h-147.96" stroke-width=".24148"/>
  <path id="path110343" d="m389.8 225.21v-18.477" stroke-width=".72"/>
  <path id="path110351" d="m389.8 258.93v-18.477" stroke-width=".72"/>
  <path id="path112909" d="m241.86 261.93h147.94" stroke-width=".24098"/>
  <path id="path113071" d="m389.8 258.93v3" stroke-width=".24"/>
  <path id="path114279" d="m241.86 259.64v0.363h9.84v-0.363h-9.84" stroke-width=".72"/>
  <path id="path114281" d="m251.58 259.61c0.129-5.859-4.051-10.929-9.828-11.918" stroke-width=".72"/>
 </g>
 <g id="salaA110" fill="none" stroke="#000">
  <path id="path109091" d="m239.94 63.352-85.789-0.02479" stroke-width=".72"/>
  <path id="path110327" d="m154.16 63.327v11.903" stroke-width=".26082"/>
  <g stroke-width=".72">
   <path id="path110431" d="m154.16 118.3v-18.477"/>
   <path id="path110443" d="m154.16 93.707v-18.477"/>
   <path id="path110461" d="m154.16 181.78v-18.597"/>
   <path id="path110469" d="m154.16 157.06v-18.477"/>
  </g>
  <path id="path110479" d="m154.16 163.18v-6.121" stroke-width=".24"/>
  <path id="path110483" d="m154.16 138.58v-20.277" stroke-width=".2872"/>
  <path id="path110489" d="m154.16 93.707v6.121" stroke-width=".24"/>
  <path id="path111133" d="m154.07 187.9h55.043" stroke-width=".25606"/>
  <path id="path112289" d="m221.47 176.62v11.278" stroke-width=".24"/>
  <path id="path112293" d="m221.47 187.9h-1.199" stroke-width=".24"/>
  <path id="path112887" d="m239.94 122.98v-59.632" stroke-width=".24"/>
  <path id="path112973" d="m239.94 158.14-18.476 18.476" stroke-width=".24"/>
  <path id="path112977" d="m239.94 158.14v-35.157" stroke-width=".24"/>
  <path id="path113971" d="m154.16 181.78v6.0334" stroke-width=".29192"/>
  <path id="path114251" d="m219.91 176.86h0.364v11.04h-0.364" stroke-width=".72"/>
  <path id="path114253" d="m219.87 176.83c-5.23 1.606-9.269 5.785-10.695 11.066" stroke-width=".72"/>
 </g>
 <g id="salaA111" fill="none" stroke="#000">
  <path id="path109311" d="m389.8 168.58v19.317" stroke-width=".24"/>
  <path id="path110319" d="m389.8 187.9h-60.231" stroke-width=".24"/>
  <path id="path110321" d="m329.57 187.9h-37.336" stroke-width=".24989"/>
  <path id="path110509" d="m389.8 143.86v-18.476" stroke-width=".72"/>
  <path id="path110517" d="m389.8 168.58v-18.598" stroke-width=".72"/>
  <path id="path112895" d="m292.26 122.98h33.231" stroke-width=".24675"/>
  <path id="path112905" d="m292.26 187.85v-3.3147" stroke-width=".38032"/>
  <path id="path112907" d="m292.26 172.18v-49.192" stroke-width=".24"/>
  <path id="path112891-9" d="m325.49 122.98h6.719" stroke-width=".24"/>
  <path id="path112893-7" d="m343.25 122.98h46.524" stroke-width=".28603"/>
  <path id="path114293" d="m292.26 184.18v0.359h9.84v-0.359h-9.84" stroke-width=".72"/>
  <path id="path114295" d="m301.97 184.14c0.132-5.86-4.047-10.93-9.825-11.914" stroke-width=".72"/>
  <path id="path113065-3" d="m389.8 149.98v-6.121" stroke-width=".24"/>
 </g>
 <g id="salaA111.1" fill="none" stroke="#000">
  <path id="path109585" d="m389.8 76.07v-14.519" stroke-width=".24"/>
  <path id="path109589" d="m325.5 63.352h64.309" stroke-width=".24"/>
  <path id="path110493" d="m389.8 94.547v-18.477" stroke-width=".72"/>
  <path id="path110501" d="m389.8 119.14v-18.477" stroke-width=".72"/>
  <path id="path112885" d="m325.5 63.352v59.657" stroke-width=".24478"/>
  <path id="path110415-2" d="m332.21 110.03h0.359v11.157h-0.359" stroke-width=".72"/>
  <path id="path110417-8" d="m343.27 121.16c-0.683-5.687-5.07-10.222-10.73-11.101" stroke-width=".72"/>
  <path id="path112893-7-2" d="m343.25 121.18h46.524" stroke-width=".28603"/>
  <path id="path112897-3" d="m325.58 121.2 6.6227-0.0118" stroke-width=".24"/>
  <path id="path113065" d="m389.8 100.67v-6.121" stroke-width=".24"/>
 </g>
 <g id="salaA112" fill="none" stroke="#000">
  <path id="path109087" d="m272.58 63.352h-3.719" stroke-width=".72"/>
  <path id="path109089" d="m250.38 63.352h-8.52" stroke-width=".72"/>
  <path id="path109587" d="m313.25 63.352h10.563" stroke-width=".26725"/>
  <path id="path110415" d="m246.66 110.03h0.359v11.157h-0.359" stroke-width=".72"/>
  <path id="path110417" d="m257.73 121.16c-0.683-5.687-5.07-10.222-10.73-11.101" stroke-width=".72"/>
  <path id="path112883" d="m323.7 63.213v57.971" stroke-width=".24231"/>
  <path id="path112889" d="m241.86 121.07v-57.721" stroke-width=".24077"/>
  <path id="path112899" d="m257.7 121.18h65.992" stroke-width=".24"/>
  <g stroke-width=".72">
   <path id="path114009" d="m294.78 63.352h-3.718"/>
   <path id="path114015" d="m268.86 63.352h-18.48"/>
   <path id="path114023" d="m291.06 63.352h-18.477"/>
   <path id="path114031" d="m313.25 63.352h-18.477"/>
  </g>
 </g>
</svg>
